<svg xmlns="http://www.w3.org/2000/svg" width="267.437" height="47"><path d="M 60.025 37.301 C 57.952 37.301 56.096 36.853 54.458 35.957 C 52.845 35.061 51.578 33.832 50.657 32.271 C 49.735 30.71 49.275 28.918 49.275 26.896 C 49.275 24.874 49.735 23.082 50.657 21.521 C 51.578 19.959 52.845 18.744 54.458 17.873 C 56.096 16.978 57.952 16.529 60.025 16.529 C 61.868 16.529 63.506 16.9 64.939 17.643 C 66.398 18.36 67.524 19.435 68.318 20.868 L 65.515 22.673 C 64.85 21.674 64.031 20.945 63.058 20.484 C 62.111 19.998 61.087 19.755 59.987 19.755 C 58.656 19.755 57.465 20.049 56.416 20.638 C 55.367 21.227 54.535 22.058 53.92 23.133 C 53.306 24.182 52.999 25.437 52.999 26.896 C 52.999 28.355 53.306 29.622 53.92 30.697 C 54.535 31.772 55.367 32.603 56.416 33.193 C 57.465 33.782 58.655 34.076 59.987 34.076 C 61.087 34.076 62.111 33.845 63.058 33.385 C 64.031 32.898 64.85 32.156 65.515 31.158 L 68.318 32.924 C 67.524 34.332 66.398 35.419 64.939 36.187 C 63.506 36.929 61.868 37.301 60.025 37.301 Z M 78.434 37.301 C 76.386 37.301 74.569 36.853 72.982 35.957 C 71.421 35.087 70.122 33.814 69.22 32.271 C 68.298 30.684 67.838 28.892 67.838 26.896 C 67.838 24.874 68.298 23.082 69.22 21.521 C 70.116 19.983 71.418 18.722 72.982 17.873 C 74.569 16.978 76.386 16.529 78.434 16.529 C 80.456 16.529 82.261 16.978 83.848 17.873 C 85.461 18.744 86.714 19.959 87.611 21.521 C 88.532 23.056 88.993 24.848 88.993 26.896 C 88.993 28.918 88.532 30.71 87.611 32.271 C 86.714 33.833 85.461 35.061 83.848 35.957 C 82.261 36.853 80.456 37.301 78.434 37.301 Z M 78.434 34.076 C 79.74 34.076 80.904 33.781 81.928 33.193 C 82.978 32.603 83.796 31.772 84.386 30.697 C 84.974 29.596 85.269 28.329 85.269 26.896 C 85.269 25.437 84.974 24.182 84.386 23.133 C 83.796 22.058 82.978 21.227 81.928 20.638 C 80.904 20.048 79.74 19.755 78.434 19.755 C 77.129 19.755 75.964 20.049 74.941 20.638 C 73.916 21.227 73.098 22.058 72.483 23.133 C 71.869 24.182 71.562 25.437 71.562 26.896 C 71.562 28.329 71.869 29.597 72.483 30.697 C 73.098 31.772 73.916 32.603 74.941 33.193 C 75.964 33.782 77.129 34.076 78.434 34.076 Z M 91.018 37.07 L 91.018 8.582 L 94.704 8.582 L 94.704 37.07 Z M 107.232 37.301 C 105.492 37.301 103.956 36.981 102.625 36.341 C 101.319 35.701 100.296 34.728 99.553 33.423 C 98.837 32.092 98.478 30.428 98.478 28.432 L 98.478 16.721 L 102.164 16.721 L 102.164 28.009 C 102.164 30.006 102.638 31.503 103.585 32.501 C 104.558 33.5 105.914 33.999 107.654 33.999 C 108.935 33.999 110.048 33.743 110.995 33.231 C 111.942 32.693 112.672 31.926 113.183 30.927 C 113.696 29.903 113.951 28.675 113.951 27.241 L 113.951 16.721 L 117.637 16.721 L 117.637 37.07 L 114.143 37.07 L 114.143 31.58 L 114.719 33.039 C 114.054 34.396 113.056 35.445 111.724 36.187 C 110.394 36.929 108.896 37.301 107.232 37.301 Z M 147.038 16.529 C 148.676 16.529 150.123 16.849 151.376 17.489 C 152.631 18.129 153.603 19.102 154.294 20.407 C 155.011 21.713 155.369 23.364 155.369 25.36 L 155.369 37.07 L 151.684 37.07 L 151.684 25.782 C 151.684 23.812 151.223 22.327 150.301 21.329 C 149.38 20.33 148.088 19.831 146.424 19.831 C 145.195 19.831 144.12 20.088 143.198 20.599 C 142.277 21.111 141.561 21.866 141.048 22.865 C 140.562 23.863 140.319 25.104 140.319 26.589 L 140.319 37.07 L 136.633 37.07 L 136.633 25.782 C 136.633 23.812 136.172 22.327 135.251 21.329 C 134.355 20.33 133.062 19.831 131.373 19.831 C 130.17 19.831 129.108 20.088 128.186 20.599 C 127.265 21.111 126.548 21.866 126.036 22.865 C 125.524 23.863 125.268 25.104 125.268 26.589 L 125.268 37.07 L 121.582 37.07 L 121.582 16.721 L 125.115 16.721 L 125.115 22.135 L 124.539 20.753 C 125.179 19.422 126.165 18.385 127.495 17.643 C 128.826 16.901 130.375 16.529 132.141 16.529 C 134.086 16.529 135.763 17.016 137.17 17.988 C 138.579 18.935 139.5 20.381 139.935 22.327 L 138.438 21.713 C 139.052 20.151 140.127 18.897 141.663 17.95 C 143.198 17.003 144.99 16.529 147.038 16.529 Z M 164.916 37.301 C 163.226 37.301 161.614 37.07 160.078 36.61 C 158.568 36.149 157.378 35.586 156.507 34.92 L 158.043 32.002 C 158.914 32.592 159.989 33.09 161.268 33.5 C 162.549 33.91 163.854 34.114 165.184 34.114 C 166.9 34.114 168.128 33.871 168.87 33.385 C 169.638 32.898 170.022 32.219 170.022 31.35 C 170.022 30.71 169.792 30.211 169.331 29.852 C 168.87 29.494 168.256 29.225 167.488 29.046 C 166.664 28.852 165.831 28.698 164.993 28.585 C 164.066 28.431 163.145 28.252 162.228 28.048 C 161.352 27.834 160.503 27.525 159.694 27.126 C 158.926 26.717 158.312 26.166 157.851 25.475 C 157.39 24.758 157.16 23.812 157.16 22.634 C 157.16 21.406 157.506 20.33 158.197 19.409 C 158.888 18.488 159.861 17.784 161.115 17.297 C 162.395 16.786 163.905 16.529 165.645 16.529 C 166.976 16.529 168.32 16.696 169.677 17.029 C 171.059 17.336 172.185 17.783 173.055 18.372 L 171.481 21.29 C 170.56 20.676 169.6 20.254 168.602 20.023 C 167.62 19.795 166.615 19.679 165.607 19.678 C 163.994 19.678 162.791 19.947 161.998 20.484 C 161.205 20.996 160.808 21.662 160.808 22.481 C 160.808 23.172 161.038 23.709 161.499 24.093 C 161.985 24.451 162.599 24.733 163.342 24.938 C 164.177 25.157 165.023 25.336 165.876 25.475 C 166.797 25.603 167.719 25.782 168.64 26.013 C 169.561 26.218 170.394 26.512 171.136 26.896 C 171.882 27.261 172.518 27.817 172.979 28.508 C 173.465 29.2 173.708 30.121 173.708 31.273 C 173.708 32.501 173.35 33.563 172.633 34.46 C 171.917 35.355 170.905 36.06 169.6 36.571 C 168.294 37.058 166.733 37.301 164.916 37.301 Z M 186.032 37.301 C 184.343 37.301 182.794 36.917 181.386 36.149 C 180.004 35.355 178.891 34.191 178.046 32.655 C 177.227 31.119 176.817 29.2 176.817 26.896 C 176.817 24.592 177.214 22.673 178.008 21.137 C 178.826 19.601 179.927 18.449 181.309 17.681 C 182.717 16.913 184.292 16.529 186.032 16.529 C 188.028 16.529 189.795 16.964 191.33 17.835 C 192.866 18.705 194.082 19.921 194.978 21.482 C 195.873 23.018 196.322 24.823 196.322 26.896 C 196.322 28.969 195.873 30.786 194.978 32.348 C 194.082 33.91 192.866 35.125 191.33 35.995 C 189.795 36.866 188.028 37.301 186.032 37.301 Z M 175.243 44.519 L 175.243 16.721 L 178.775 16.721 L 178.775 22.212 L 178.545 26.934 L 178.929 31.657 L 178.929 44.519 Z M 185.725 34.076 C 187.03 34.076 188.195 33.781 189.219 33.193 C 190.268 32.603 191.087 31.772 191.676 30.697 C 192.29 29.596 192.597 28.329 192.597 26.896 C 192.597 25.437 192.29 24.182 191.676 23.133 C 191.087 22.058 190.268 21.227 189.219 20.638 C 188.195 20.048 187.03 19.755 185.725 19.755 C 184.445 19.755 183.28 20.049 182.231 20.638 C 181.207 21.227 180.388 22.058 179.774 23.133 C 179.185 24.182 178.891 25.437 178.891 26.896 C 178.891 28.329 179.185 29.597 179.774 30.697 C 180.388 31.772 181.207 32.603 182.231 33.193 C 183.28 33.782 184.445 34.076 185.725 34.076 Z M 198.343 37.07 L 198.343 16.721 L 201.875 16.721 L 201.875 22.25 L 201.529 20.868 C 202.093 19.46 203.04 18.386 204.371 17.643 C 205.702 16.901 207.34 16.529 209.285 16.529 L 209.285 20.1 C 209.133 20.075 208.979 20.062 208.824 20.062 L 208.44 20.062 C 206.47 20.062 204.908 20.651 203.756 21.828 C 202.604 23.006 202.029 24.707 202.029 26.934 L 202.029 37.07 Z M 219.285 37.301 C 217.237 37.301 215.42 36.853 213.833 35.957 C 212.272 35.087 210.972 33.814 210.07 32.271 C 209.149 30.684 208.688 28.892 208.688 26.896 C 208.688 24.874 209.149 23.082 210.07 21.521 C 210.967 19.983 212.268 18.722 213.833 17.873 C 215.42 16.978 217.237 16.529 219.285 16.529 C 221.306 16.529 223.111 16.978 224.698 17.873 C 226.311 18.744 227.565 19.959 228.461 21.521 C 229.383 23.056 229.843 24.848 229.843 26.896 C 229.843 28.918 229.383 30.71 228.461 32.271 C 227.565 33.833 226.311 35.061 224.698 35.957 C 223.111 36.853 221.306 37.301 219.285 37.301 Z M 219.285 34.076 C 220.59 34.076 221.755 33.781 222.779 33.193 C 223.828 32.603 224.647 31.772 225.236 30.697 C 225.824 29.596 226.119 28.329 226.119 26.896 C 226.119 25.437 225.824 24.182 225.236 23.133 C 224.647 22.058 223.828 21.227 222.779 20.638 C 221.755 20.048 220.59 19.755 219.285 19.755 C 217.979 19.755 216.814 20.049 215.791 20.638 C 214.767 21.227 213.948 22.058 213.334 23.133 C 212.719 24.182 212.412 25.437 212.412 26.896 C 212.412 28.329 212.719 29.597 213.334 30.697 C 213.948 31.772 214.767 32.603 215.791 33.193 C 216.814 33.782 217.979 34.076 219.285 34.076 Z M 240.431 37.301 C 238.69 37.301 237.155 36.981 235.823 36.341 C 234.518 35.701 233.494 34.728 232.752 33.423 C 232.035 32.092 231.677 30.428 231.677 28.432 L 231.677 16.721 L 235.363 16.721 L 235.363 28.009 C 235.363 30.006 235.836 31.503 236.783 32.501 C 237.756 33.5 239.113 33.999 240.853 33.999 C 242.133 33.999 243.246 33.743 244.193 33.231 C 245.141 32.693 245.87 31.926 246.382 30.927 C 246.894 29.903 247.15 28.675 247.15 27.241 L 247.15 16.721 L 250.836 16.721 L 250.836 37.07 L 247.342 37.07 L 247.342 31.58 L 247.918 33.039 C 247.252 34.396 246.254 35.445 244.923 36.187 C 243.592 36.929 242.094 37.301 240.431 37.301 Z M 261.769 37.301 C 259.721 37.301 258.134 36.751 257.008 35.65 C 255.882 34.549 255.319 32.975 255.319 30.927 L 255.319 12.268 L 259.004 12.268 L 259.004 30.774 C 259.004 31.875 259.273 32.719 259.811 33.308 C 260.374 33.897 261.167 34.191 262.191 34.191 C 263.343 34.191 264.303 33.871 265.071 33.231 L 266.223 35.88 C 265.659 36.367 264.981 36.725 264.188 36.955 C 263.42 37.186 262.613 37.301 261.769 37.301 Z M 251.863 19.755 L 251.863 16.721 L 264.84 16.721 L 264.84 19.755 Z" fill="rgb(255,255,255)"></path><path d="M 0 5.296 L 21.845 5.296 L 21.845 13.239 L 7.944 13.239 L 7.944 34.423 L 29.127 34.423 L 29.127 20.521 L 37.07 20.521 L 37.07 42.366 L 0 42.366 Z" fill="rgb(255, 255, 255)"></path><path d="M 37.07 19.197 L 23.169 5.296 L 37.07 5.296 Z" fill="rgb(164,157,105)"></path></svg>