<svg width="432" height="360" viewBox="0 0 432 360" fill="none" xmlns="http://www.w3.org/2000/svg">
<rect width="432" height="360" fill="white"/>
<path d="M233.721 201.886C233.721 201.886 267.84 193.616 288.96 175.107C310.08 156.598 316.747 129.027 304.32 105.382C291.892 81.7377 256.209 77.9841 230.673 59.7825C205.137 41.5809 172.113 38.2881 150.513 63.0033C128.913 87.7185 146.793 101.725 141.326 133.918C135.859 166.112 154.19 218.072 233.721 201.886Z" fill="#DED9C5"/>
<path opacity="0.7" d="M233.721 201.886C233.721 201.886 267.84 193.616 288.96 175.107C310.08 156.598 316.747 129.027 304.32 105.382C291.892 81.7377 256.209 77.9841 230.673 59.7825C205.137 41.5809 172.113 38.2881 150.513 63.0033C128.913 87.7185 146.793 101.725 141.326 133.918C135.859 166.112 154.19 218.072 233.721 201.886Z" fill="white"/>
<mask id="mask0_712_3125" style="mask-type:luminance" maskUnits="userSpaceOnUse" x="112" y="128" width="32" height="92">
<path d="M143.669 128.154H112.594V219.056H143.669V128.154Z" fill="white"/>
</mask>
<g mask="url(#mask0_712_3125)">
<path d="M156.619 138.56C154.973 138.387 153.024 140.638 152.419 141.987C152.371 142.102 151.767 144.022 151.795 144.018H151.834C151.522 144.373 151.191 144.757 150.84 145.179C150.197 145.971 149.477 146.869 148.762 147.901C147.976 149.001 147.256 150.147 146.607 151.333C145.868 152.657 145.252 154.045 144.763 155.48V155.533C144.763 155.053 144.763 153.694 144.735 153.589C144.547 152.125 143.295 149.408 141.691 149.106C141.42 149.063 141.142 149.078 140.877 149.15C140.611 149.221 140.364 149.349 140.151 149.522C139.938 149.696 139.764 149.913 139.641 150.159C139.518 150.405 139.448 150.674 139.435 150.949C139.339 152.11 140.184 153.277 141.005 154.011C141.931 154.837 144.509 155.643 144.715 155.706C144.248 157.164 143.879 158.652 143.611 160.16C143.453 161.043 143.323 161.936 143.203 162.838C143.203 162.421 143.203 162.046 143.203 161.994C143.016 160.53 141.763 157.808 140.16 157.51C139.889 157.468 139.612 157.482 139.347 157.554C139.081 157.626 138.834 157.752 138.621 157.926C138.409 158.099 138.235 158.316 138.111 158.561C137.987 158.806 137.917 159.074 137.904 159.349C137.808 160.515 138.653 161.677 139.474 162.411C140.295 163.146 142.493 163.885 143.069 164.072L142.939 165.109C142.743 166.765 142.551 168.426 142.315 170.043C142.234 170.614 142.128 171.171 142.027 171.733C142.027 171.358 142.027 171.046 142.027 170.998C141.835 169.534 140.587 166.818 138.984 166.515C138.713 166.472 138.435 166.487 138.169 166.559C137.904 166.631 137.657 166.758 137.444 166.932C137.231 167.106 137.057 167.323 136.934 167.569C136.81 167.815 136.74 168.084 136.728 168.358C136.632 169.52 137.477 170.686 138.298 171.421C139.119 172.155 141.101 172.822 141.787 173.043C141.667 173.614 141.547 174.186 141.408 174.733C141.303 175.102 141.226 175.467 141.096 175.837C140.967 176.206 140.861 176.562 140.746 176.922C140.496 177.603 140.266 178.309 139.987 178.971C139.81 179.451 139.632 179.869 139.455 180.306C139.546 179.739 139.699 178.626 139.699 178.53C139.681 177.231 139.331 175.959 138.682 174.834C138.687 174.689 138.677 174.544 138.653 174.402C138.619 174.128 138.528 173.865 138.386 173.629C138.243 173.393 138.052 173.19 137.826 173.033C137.599 172.876 137.342 172.769 137.07 172.718C136.799 172.668 136.521 172.676 136.253 172.741C134.655 173.168 133.642 175.971 133.565 177.445C133.565 177.531 133.618 178.482 133.661 179.082C133.584 178.731 133.507 178.395 133.421 178.04C133.253 177.33 133.066 176.629 132.864 175.875C132.759 175.515 132.648 175.15 132.533 174.786C132.418 174.421 132.279 174.042 132.149 173.667C131.832 172.803 131.472 171.939 131.088 171.085C131.707 170.936 133.896 170.374 134.775 169.702C135.653 169.03 136.575 167.931 136.565 166.765C136.573 166.49 136.522 166.217 136.417 165.964C136.312 165.71 136.155 165.481 135.956 165.292C135.757 165.103 135.52 164.959 135.261 164.868C135.002 164.776 134.727 164.741 134.453 164.763C132.811 164.941 131.381 167.557 131.093 169.006C131.093 169.098 130.978 170.158 130.935 170.739C130.699 170.226 130.455 169.712 130.215 169.198C129.48 167.72 128.688 166.246 127.911 164.773L127.2 163.414C127.421 163.362 130.037 162.757 131.04 161.998C131.914 161.331 132.845 160.232 132.835 159.066C132.843 158.791 132.793 158.518 132.688 158.264C132.583 158.01 132.426 157.781 132.227 157.592C132.027 157.402 131.791 157.257 131.532 157.166C131.273 157.074 130.997 157.038 130.723 157.059C129.077 157.237 127.651 159.858 127.363 161.302C127.363 161.413 127.2 162.939 127.186 163.333C126.667 162.334 126.163 161.336 125.703 160.333C125.073 158.98 124.534 157.586 124.09 156.162C124.191 156.162 126.927 155.518 127.93 154.746C128.803 154.074 129.73 152.974 129.72 151.808C129.728 151.534 129.678 151.261 129.573 151.007C129.468 150.753 129.31 150.524 129.111 150.336C128.912 150.147 128.675 150.002 128.416 149.911C128.157 149.82 127.882 149.784 127.608 149.806C125.967 149.984 124.541 152.605 124.248 154.05C124.248 154.146 124.123 155.307 124.085 155.864H123.994C123.58 154.421 123.299 152.942 123.154 151.448C123.058 150.627 123.019 149.835 122.995 149.048C123.514 148.986 125.875 148.669 126.874 148.088C127.872 147.507 128.861 146.523 128.981 145.362C129.018 145.09 128.998 144.813 128.921 144.549C128.844 144.285 128.713 144.041 128.535 143.831C128.358 143.622 128.138 143.452 127.891 143.333C127.643 143.213 127.374 143.147 127.099 143.139C125.448 143.139 123.739 145.582 123.288 146.979C123.288 147.056 123.096 147.858 122.986 148.448C122.986 148.098 122.986 147.742 122.986 147.406C122.986 146.158 123.067 145.006 123.149 143.998C123.197 143.422 123.25 142.904 123.307 142.419C123.787 142.088 125.707 140.739 126.288 139.774C126.869 138.81 127.33 137.475 126.903 136.386C126.81 136.127 126.664 135.891 126.475 135.693C126.285 135.495 126.056 135.338 125.802 135.234C125.548 135.13 125.275 135.081 125.001 135.089C124.726 135.097 124.457 135.163 124.21 135.282C122.645 136.078 122.256 139.04 122.501 140.48C122.501 140.61 123.077 142.539 123.101 142.52H123.13C123.067 143 123.005 143.48 122.943 144.037C122.842 145.05 122.741 146.197 122.712 147.45C122.665 148.802 122.697 150.157 122.808 151.506C122.924 153.016 123.175 154.513 123.557 155.979C123.557 155.979 123.557 156.018 123.557 156.032C123.293 155.624 122.53 154.506 122.463 154.424C121.503 153.31 118.973 151.722 117.451 152.365C117.201 152.479 116.978 152.644 116.796 152.85C116.614 153.056 116.478 153.298 116.396 153.56C116.314 153.822 116.288 154.099 116.32 154.372C116.352 154.645 116.442 154.908 116.583 155.144C117.144 156.171 118.503 156.675 119.583 156.834C120.811 157.011 123.423 156.262 123.61 156.2C124.036 157.683 124.56 159.136 125.179 160.549C125.535 161.374 125.919 162.195 126.317 163.011C126.082 162.666 125.866 162.358 125.837 162.315C124.877 161.202 122.347 159.613 120.826 160.256C120.577 160.372 120.356 160.539 120.176 160.746C119.996 160.953 119.861 161.196 119.781 161.458C119.7 161.721 119.675 161.997 119.708 162.269C119.741 162.542 119.831 162.804 119.971 163.04C120.533 164.062 121.891 164.571 122.971 164.73C124.051 164.888 126.303 164.293 126.888 164.13L127.368 165.066C128.117 166.558 128.875 168.046 129.571 169.53C129.816 170.048 130.051 170.571 130.263 171.094C130.051 170.787 129.874 170.533 129.84 170.494C128.88 169.376 126.351 167.787 124.829 168.435C124.579 168.549 124.356 168.715 124.175 168.921C123.994 169.127 123.858 169.37 123.776 169.632C123.695 169.894 123.669 170.171 123.702 170.443C123.734 170.716 123.824 170.979 123.965 171.214C124.527 172.237 125.885 172.741 126.965 172.904C128.045 173.067 130.075 172.525 130.771 172.333C130.987 172.87 131.199 173.418 131.381 173.95C131.501 174.32 131.635 174.666 131.736 175.04C131.837 175.414 131.938 175.779 132.043 176.139C132.211 176.85 132.389 177.579 132.523 178.27C132.629 178.75 132.725 179.23 132.816 179.677C132.581 179.154 132.091 178.141 132.039 178.059C131.256 176.811 129 174.858 127.397 175.266C127.133 175.34 126.887 175.47 126.676 175.647C126.466 175.823 126.294 176.041 126.174 176.288C126.053 176.535 125.986 176.805 125.977 177.079C125.968 177.354 126.017 177.627 126.12 177.882C126.523 178.976 127.776 179.682 128.832 180.003C129.994 180.358 132.562 180.032 132.883 180.003C133.037 180.771 133.181 181.52 133.301 182.226C133.738 184.683 134.002 186.742 134.17 188.187C134.199 188.442 134.223 188.667 134.247 188.888H129.269L130.8 218.85H139.843L141.379 188.888H136.743L136.848 188.677C137.482 187.347 138.365 185.446 139.32 183.114C139.623 182.379 139.93 181.587 140.242 180.771C140.549 180.834 143.122 181.352 144.283 181.083C145.359 180.843 146.683 180.234 147.163 179.163C147.284 178.917 147.353 178.648 147.363 178.374C147.374 178.1 147.327 177.826 147.225 177.572C147.123 177.317 146.969 177.086 146.772 176.895C146.575 176.704 146.341 176.556 146.083 176.461C144.514 175.933 142.123 177.714 141.245 178.899C141.192 178.971 140.717 179.797 140.424 180.339C140.549 180.003 140.674 179.682 140.799 179.336C141.048 178.654 141.279 177.963 141.528 177.224C141.634 176.864 141.744 176.499 141.855 176.13C141.965 175.76 142.051 175.371 142.152 174.987C142.363 174.09 142.536 173.173 142.69 172.246C143.285 172.462 145.421 173.206 146.53 173.13C147.639 173.053 149.011 172.65 149.645 171.69C149.803 171.465 149.912 171.209 149.965 170.939C150.017 170.67 150.012 170.392 149.95 170.124C149.888 169.856 149.77 169.605 149.605 169.386C149.439 169.167 149.228 168.985 148.987 168.853C147.519 168.094 144.883 169.491 143.837 170.533C143.775 170.595 143.107 171.43 142.747 171.891C142.839 171.334 142.925 170.778 142.997 170.206C143.199 168.57 143.357 166.904 143.515 165.243L143.674 163.722C143.885 163.798 146.405 164.734 147.643 164.648C148.743 164.571 150.12 164.168 150.759 163.208C150.917 162.983 151.026 162.728 151.078 162.458C151.131 162.188 151.126 161.91 151.064 161.643C151.002 161.375 150.884 161.123 150.718 160.904C150.552 160.685 150.342 160.503 150.101 160.371C148.632 159.613 145.997 161.01 144.951 162.051C144.874 162.133 143.914 163.328 143.683 163.645C143.803 162.531 143.933 161.418 144.101 160.328C144.327 158.853 144.647 157.394 145.061 155.96C145.157 155.998 147.783 156.987 149.05 156.92C150.149 156.843 151.527 156.44 152.165 155.48C152.323 155.255 152.432 155 152.485 154.73C152.537 154.46 152.532 154.182 152.47 153.915C152.408 153.647 152.29 153.395 152.125 153.176C151.959 152.957 151.748 152.775 151.507 152.643C150.039 151.885 147.403 153.282 146.357 154.323C146.29 154.395 145.56 155.307 145.219 155.763L145.138 155.72C145.588 154.288 146.168 152.9 146.871 151.573C147.245 150.834 147.648 150.133 148.051 149.499C148.531 149.734 150.677 150.781 151.829 150.824C152.981 150.867 154.349 150.622 155.088 149.72C155.267 149.514 155.4 149.272 155.48 149.011C155.56 148.751 155.585 148.476 155.553 148.205C155.521 147.934 155.433 147.672 155.294 147.437C155.155 147.202 154.969 146.999 154.747 146.84C153.37 145.923 150.595 147.027 149.467 147.944C149.405 147.997 148.819 148.573 148.402 149.005C148.589 148.712 148.776 148.405 148.963 148.126C149.655 147.085 150.351 146.173 150.975 145.371C151.335 144.92 151.666 144.517 151.983 144.142C152.563 144.142 154.906 144.061 155.928 143.581C156.951 143.101 158.069 142.237 158.328 141.094C158.415 140.814 158.439 140.518 158.396 140.228C158.354 139.937 158.246 139.66 158.082 139.417C157.918 139.174 157.702 138.97 157.448 138.822C157.195 138.674 156.912 138.584 156.619 138.56ZM138.418 182.72C137.424 185.005 136.498 186.872 135.85 188.168C135.72 188.427 135.6 188.648 135.49 188.874H135.36C135.327 188.619 135.293 188.346 135.25 188.034C135.048 186.594 134.731 184.501 134.242 182.034C134.088 181.251 133.911 180.421 133.719 179.566C134.492 179.257 135.247 178.903 135.979 178.506C136.824 179.422 138.994 180.493 139.272 180.632C138.999 181.347 138.72 182.048 138.418 182.72Z" fill="#DED9C5"/>
<path d="M118.598 148.419C119.784 148.938 122.688 148.871 122.693 148.871C122.697 148.871 122.069 146.951 122.011 146.855C121.373 145.525 119.361 143.322 117.72 143.547C117.449 143.592 117.191 143.693 116.962 143.844C116.734 143.995 116.539 144.192 116.391 144.422C116.243 144.653 116.145 144.912 116.104 145.183C116.062 145.454 116.078 145.731 116.15 145.995C116.424 147.133 117.6 147.978 118.598 148.419Z" fill="#DED9C5"/>
<path opacity="0.3" d="M118.598 148.419C119.784 148.938 122.688 148.871 122.693 148.871C122.697 148.871 122.069 146.951 122.011 146.855C121.373 145.525 119.361 143.322 117.72 143.547C117.449 143.592 117.191 143.693 116.962 143.844C116.734 143.995 116.539 144.192 116.391 144.422C116.243 144.653 116.145 144.912 116.104 145.183C116.062 145.454 116.078 145.731 116.15 145.995C116.424 147.133 117.6 147.978 118.598 148.419Z" fill="white"/>
<path opacity="0.3" d="M123.629 156.19C124.055 157.673 124.58 159.126 125.199 160.539C125.554 161.365 125.938 162.186 126.336 163.002C126.101 162.656 125.885 162.349 125.856 162.306C124.896 161.192 122.367 159.603 120.845 160.246C120.593 160.361 120.369 160.527 120.186 160.734C120.003 160.941 119.866 161.184 119.783 161.448C119.701 161.711 119.675 161.99 119.707 162.264C119.74 162.538 119.83 162.803 119.971 163.04C120.533 164.062 121.891 164.571 122.971 164.73C124.051 164.888 126.303 164.293 126.888 164.13L127.368 165.066C128.117 166.558 128.875 168.046 129.571 169.53C129.816 170.048 130.051 170.571 130.263 171.094C130.051 170.787 129.874 170.533 129.84 170.494C128.88 169.376 126.351 167.787 124.829 168.435C124.579 168.549 124.356 168.715 124.175 168.921C123.994 169.127 123.858 169.37 123.776 169.632C123.695 169.894 123.669 170.171 123.702 170.443C123.734 170.716 123.824 170.979 123.965 171.214C124.527 172.237 125.885 172.741 126.965 172.904C128.045 173.067 130.075 172.525 130.771 172.333C130.987 172.87 131.199 173.418 131.381 173.95C131.501 174.32 131.635 174.666 131.736 175.04C131.837 175.414 131.938 175.779 132.043 176.139C132.211 176.85 132.389 177.579 132.523 178.27C132.629 178.75 132.725 179.23 132.816 179.677C132.581 179.154 132.091 178.141 132.039 178.059C131.256 176.811 129 174.858 127.397 175.266C127.133 175.34 126.887 175.47 126.676 175.647C126.466 175.823 126.294 176.041 126.174 176.288C126.053 176.535 125.986 176.805 125.977 177.079C125.968 177.354 126.017 177.627 126.12 177.882C126.523 178.976 127.776 179.682 128.832 180.003C129.994 180.358 132.562 180.032 132.883 180.003C133.037 180.771 133.181 181.52 133.301 182.226C133.738 184.683 134.002 186.742 134.17 188.187C134.199 188.442 134.223 188.667 134.247 188.888H129.269L130.8 218.85H139.843L141.379 188.888H136.743L136.848 188.677C137.482 187.347 138.365 185.446 139.32 183.114C139.623 182.379 139.93 181.587 140.242 180.771C140.549 180.834 143.122 181.352 144.283 181.083C145.359 180.843 146.683 180.234 147.163 179.163C147.284 178.917 147.353 178.648 147.363 178.374C147.374 178.1 147.327 177.826 147.225 177.572C147.123 177.317 146.969 177.086 146.772 176.895C146.575 176.704 146.341 176.556 146.083 176.461C144.514 175.933 142.123 177.714 141.245 178.899C141.192 178.971 140.717 179.797 140.424 180.339C140.549 180.003 140.674 179.682 140.799 179.336C141.048 178.654 141.279 177.963 141.528 177.224C141.634 176.864 141.744 176.499 141.855 176.13C141.965 175.76 142.051 175.371 142.152 174.987C142.363 174.09 142.536 173.173 142.69 172.246C143.285 172.462 145.421 173.206 146.53 173.13C147.639 173.053 149.011 172.65 149.645 171.69C149.803 171.465 149.912 171.209 149.965 170.939C150.017 170.67 150.012 170.392 149.95 170.124C149.888 169.856 149.77 169.605 149.605 169.386C149.439 169.167 149.228 168.985 148.987 168.853C147.519 168.094 144.883 169.491 143.837 170.533C143.775 170.595 143.107 171.43 142.747 171.891C142.839 171.334 142.925 170.778 142.997 170.206C143.199 168.57 143.357 166.904 143.515 165.243L143.674 163.722C143.885 163.798 146.405 164.734 147.643 164.648C148.743 164.571 150.12 164.168 150.759 163.208C150.917 162.983 151.026 162.728 151.078 162.458C151.131 162.188 151.126 161.91 151.064 161.643C151.002 161.375 150.884 161.123 150.718 160.904C150.552 160.685 150.342 160.503 150.101 160.371C148.632 159.613 145.997 161.01 144.951 162.051C144.874 162.133 143.914 163.328 143.683 163.645C143.803 162.531 143.933 161.418 144.101 160.328C144.327 158.853 144.647 157.394 145.061 155.96C145.157 155.998 147.783 156.987 149.05 156.92C150.149 156.843 151.527 156.44 152.165 155.48C152.323 155.255 152.432 155 152.485 154.73C152.537 154.46 152.532 154.182 152.47 153.915C152.408 153.647 152.29 153.395 152.125 153.176C151.959 152.957 151.748 152.775 151.507 152.643C150.039 151.885 147.403 153.282 146.357 154.323C146.29 154.395 145.56 155.307 145.219 155.763L145.138 155.72C145.588 154.288 146.168 152.9 146.871 151.573C147.245 150.834 147.648 150.133 148.051 149.499C148.531 149.734 150.677 150.781 151.829 150.824C152.981 150.867 154.349 150.622 155.088 149.72C155.267 149.514 155.4 149.272 155.48 149.011C155.56 148.751 155.585 148.476 155.553 148.205C155.521 147.934 155.433 147.672 155.294 147.437C155.155 147.202 154.969 146.999 154.747 146.84C153.37 145.923 150.595 147.027 149.467 147.944C149.405 147.997 148.819 148.573 148.402 149.005C148.589 148.712 148.776 148.405 148.963 148.126C149.655 147.085 150.351 146.173 150.975 145.371C151.335 144.92 151.666 144.517 151.983 144.142C152.563 144.142 154.906 144.061 155.928 143.581C156.951 143.101 158.069 142.237 158.328 141.094C158.392 140.828 158.4 140.552 158.351 140.282C158.302 140.013 158.197 139.757 158.042 139.531C157.888 139.305 157.688 139.114 157.456 138.97C157.223 138.825 156.963 138.732 156.691 138.694C155.045 138.522 153.096 140.773 152.491 142.122C152.443 142.237 151.839 144.157 151.867 144.152H151.906C151.594 144.507 151.263 144.891 150.912 145.314C150.269 146.106 149.549 147.003 148.834 148.035C148.048 149.136 147.328 150.282 146.679 151.467C145.94 152.791 145.324 154.179 144.835 155.614V155.667C144.835 155.187 144.835 153.829 144.807 153.723C144.619 152.259 143.367 149.542 141.763 149.24C141.492 149.197 141.214 149.212 140.949 149.284C140.683 149.356 140.436 149.483 140.223 149.657C140.01 149.831 139.836 150.048 139.713 150.294C139.59 150.539 139.52 150.808 139.507 151.083C139.411 152.245 140.256 153.411 141.077 154.146C142.003 154.971 144.581 155.778 144.787 155.84C144.301 157.253 143.908 158.696 143.611 160.16C143.453 161.043 143.323 161.936 143.203 162.838C143.203 162.421 143.203 162.046 143.203 161.994C143.016 160.53 141.763 157.808 140.16 157.51C139.889 157.468 139.612 157.482 139.347 157.554C139.081 157.626 138.834 157.752 138.621 157.926C138.409 158.099 138.235 158.316 138.111 158.561C137.987 158.806 137.917 159.074 137.904 159.349C137.808 160.515 138.653 161.677 139.474 162.411C140.295 163.146 142.493 163.885 143.069 164.072L142.939 165.109C142.743 166.765 142.551 168.426 142.315 170.043C142.234 170.614 142.128 171.171 142.027 171.733C142.027 171.358 142.027 171.046 142.027 170.998C141.835 169.534 140.587 166.818 138.984 166.515C138.713 166.472 138.435 166.487 138.169 166.559C137.904 166.631 137.657 166.758 137.444 166.932C137.231 167.106 137.057 167.323 136.934 167.569C136.81 167.815 136.74 168.084 136.728 168.358C136.632 169.52 137.477 170.686 138.298 171.421C139.119 172.155 141.101 172.822 141.787 173.043C141.667 173.614 141.547 174.186 141.408 174.733C141.303 175.102 141.226 175.467 141.096 175.837C140.967 176.206 140.861 176.562 140.746 176.922C140.496 177.603 140.266 178.309 139.987 178.971C139.81 179.451 139.632 179.869 139.455 180.306C139.546 179.739 139.699 178.626 139.699 178.53C139.681 177.231 139.331 175.959 138.682 174.834C138.687 174.689 138.677 174.544 138.653 174.402C138.619 174.128 138.528 173.865 138.386 173.629C138.243 173.393 138.052 173.19 137.826 173.033C137.599 172.876 137.342 172.769 137.07 172.718C136.799 172.668 136.521 172.676 136.253 172.741C134.655 173.168 133.642 175.971 133.565 177.445C133.565 177.531 133.618 178.482 133.661 179.082C133.584 178.731 133.507 178.395 133.421 178.04C133.253 177.33 133.066 176.629 132.864 175.875C132.759 175.515 132.648 175.15 132.533 174.786C132.418 174.421 132.279 174.042 132.149 173.667C131.832 172.803 131.472 171.939 131.088 171.085C131.707 170.936 133.896 170.374 134.775 169.702C135.653 169.03 136.575 167.931 136.565 166.765C136.573 166.49 136.522 166.217 136.417 165.964C136.312 165.71 136.155 165.481 135.956 165.292C135.757 165.103 135.52 164.959 135.261 164.868C135.002 164.776 134.727 164.741 134.453 164.763C132.811 164.941 131.381 167.557 131.093 169.006C131.093 169.098 130.978 170.158 130.935 170.739C130.699 170.226 130.455 169.712 130.215 169.198C129.48 167.72 128.688 166.246 127.911 164.773L127.2 163.414C127.421 163.362 130.037 162.757 131.04 161.998C131.914 161.331 132.845 160.232 132.835 159.066C132.843 158.791 132.793 158.518 132.688 158.264C132.583 158.01 132.426 157.781 132.227 157.592C132.027 157.402 131.791 157.257 131.532 157.166C131.273 157.074 130.997 157.038 130.723 157.059C129.077 157.237 127.651 159.858 127.363 161.302C127.363 161.413 127.2 162.939 127.186 163.333C126.667 162.334 126.163 161.336 125.703 160.333C125.073 158.98 124.534 157.586 124.09 156.162C124.191 156.162 126.927 155.518 127.93 154.746C128.803 154.074 129.73 152.974 129.72 151.808C129.728 151.534 129.678 151.261 129.573 151.007C129.468 150.753 129.31 150.524 129.111 150.336C128.912 150.147 128.675 150.002 128.416 149.911C128.157 149.82 127.882 149.784 127.608 149.806C125.967 149.984 124.541 152.605 124.248 154.05C124.248 154.146 124.123 155.307 124.085 155.864H123.994C123.58 154.421 123.299 152.942 123.154 151.448C123.058 150.627 123.019 149.835 122.995 149.048C123.514 148.986 125.875 148.669 126.874 148.088C127.872 147.507 128.861 146.523 128.981 145.362C129.018 145.09 128.998 144.813 128.921 144.549C128.844 144.285 128.713 144.041 128.535 143.831C128.358 143.622 128.138 143.452 127.891 143.333C127.643 143.213 127.374 143.147 127.099 143.139C125.448 143.139 123.739 145.582 123.288 146.979C123.288 147.056 123.096 147.858 122.986 148.448C122.986 148.098 122.986 147.742 122.986 147.406C122.986 146.158 123.067 145.006 123.149 143.998C123.197 143.422 123.25 142.904 123.307 142.419C123.787 142.088 125.707 140.739 126.288 139.774C126.869 138.81 127.33 137.475 126.903 136.386C126.81 136.127 126.664 135.891 126.475 135.693C126.285 135.495 126.056 135.338 125.802 135.234C125.548 135.13 125.275 135.081 125.001 135.089C124.726 135.097 124.457 135.163 124.21 135.282C122.645 136.078 122.256 139.04 122.501 140.48C122.501 140.61 123.077 142.539 123.101 142.52H123.13C123.067 143 123.005 143.48 122.943 144.037C122.842 145.05 122.741 146.197 122.712 147.45C122.665 148.802 122.697 150.157 122.808 151.506C122.924 153.016 123.175 154.513 123.557 155.979C123.557 155.979 123.557 156.018 123.557 156.032C123.293 155.624 122.53 154.506 122.463 154.424C121.503 153.31 118.973 151.722 117.451 152.365C117.201 152.479 116.978 152.644 116.796 152.85C116.614 153.056 116.478 153.298 116.396 153.56C116.314 153.822 116.288 154.099 116.32 154.372C116.352 154.645 116.442 154.908 116.583 155.144C117.144 156.171 118.503 156.675 119.583 156.834C120.831 157.002 123.423 156.253 123.629 156.19ZM135.999 178.496C136.843 179.413 139.013 180.483 139.291 180.622C138.999 181.347 138.706 182.062 138.418 182.71C137.424 184.995 136.498 186.862 135.85 188.158C135.72 188.418 135.6 188.638 135.49 188.864H135.36C135.327 188.61 135.293 188.336 135.25 188.024C135.048 186.584 134.731 184.491 134.242 182.024C134.088 181.242 133.911 180.411 133.719 179.557C134.498 179.248 135.26 178.894 135.999 178.496Z" fill="white"/>
</g>
<path d="M148.91 108.416H297.326C298.658 108.416 299.935 108.945 300.877 109.887C301.818 110.828 302.347 112.105 302.347 113.437V211.27H143.89V113.437C143.89 112.105 144.419 110.828 145.36 109.887C146.302 108.945 147.579 108.416 148.91 108.416Z" stroke="#263238" stroke-linecap="round" stroke-linejoin="round"/>
<path d="M295.916 116.451H150.317V198.733H295.916V116.451Z" stroke="#263238" stroke-linecap="round" stroke-linejoin="round"/>
<path d="M277.93 206.317H169.032V211.683H277.93V206.317Z" fill="#263238" stroke="#263238" stroke-linecap="round" stroke-linejoin="round"/>
<path d="M277.93 208.899H169.032V211.683H277.93V208.899Z" fill="white" stroke="#263238" stroke-linecap="round" stroke-linejoin="round"/>
<path d="M131.074 214.88C131.074 214.88 132.865 217.069 138.231 218.855H308.732C308.732 218.855 312.706 217.861 314.492 215.082L131.074 214.88Z" fill="#263238" stroke="#263238" stroke-linecap="round" stroke-linejoin="round"/>
<path d="M313.973 210.949H131.621C131.12 210.949 130.714 211.355 130.714 211.856V214.218C130.714 214.719 131.12 215.125 131.621 215.125H313.973C314.474 215.125 314.88 214.719 314.88 214.218V211.856C314.88 211.355 314.474 210.949 313.973 210.949Z" fill="white" stroke="#263238" stroke-linecap="round" stroke-linejoin="round"/>
<path d="M224.472 111.527C224.472 111.251 224.391 110.982 224.238 110.753C224.084 110.524 223.867 110.345 223.612 110.24C223.357 110.135 223.077 110.108 222.807 110.162C222.537 110.216 222.289 110.349 222.094 110.544C221.9 110.739 221.768 110.988 221.715 111.258C221.661 111.528 221.69 111.808 221.796 112.063C221.902 112.317 222.081 112.534 222.311 112.686C222.54 112.839 222.81 112.919 223.085 112.919C223.268 112.919 223.449 112.882 223.617 112.812C223.786 112.742 223.939 112.64 224.068 112.511C224.197 112.381 224.299 112.228 224.368 112.059C224.438 111.89 224.473 111.709 224.472 111.527Z" fill="white" stroke="#263238" stroke-linecap="round" stroke-linejoin="round"/>
<path d="M145.383 137.36C145.278 137.36 145.177 137.319 145.103 137.245C145.028 137.171 144.986 137.071 144.984 136.966V125.446C144.986 125.342 145.028 125.241 145.103 125.168C145.177 125.094 145.278 125.053 145.383 125.053C145.488 125.053 145.588 125.094 145.663 125.168C145.737 125.241 145.78 125.342 145.781 125.446V136.966C145.78 137.071 145.737 137.171 145.663 137.245C145.588 137.319 145.488 137.36 145.383 137.36Z" fill="#263238" stroke="white" stroke-width="0.691688" stroke-miterlimit="10"/>
<path d="M256.378 116.451V198.704" stroke="#263238" stroke-linecap="round" stroke-linejoin="round"/>
<path d="M258.418 116.451V198.704" stroke="#263238" stroke-linecap="round" stroke-linejoin="round"/>
<path d="M150.398 193.271H256.378" stroke="#263238" stroke-linecap="round" stroke-linejoin="round"/>
<path d="M155.069 183.027H190.916" stroke="#263238" stroke-linecap="round" stroke-linejoin="round"/>
<path d="M155.069 179.615H190.916" stroke="#263238" stroke-linecap="round" stroke-linejoin="round"/>
<path d="M155.069 176.202H190.916" stroke="#263238" stroke-linecap="round" stroke-linejoin="round"/>
<path d="M155.069 172.789H190.916" stroke="#263238" stroke-linecap="round" stroke-linejoin="round"/>
<path d="M155.069 169.371H190.916" stroke="#263238" stroke-linecap="round" stroke-linejoin="round"/>
<path d="M155.069 159.416H190.916" stroke="#263238" stroke-linecap="round" stroke-linejoin="round"/>
<path d="M155.069 156.003H190.916" stroke="#263238" stroke-linecap="round" stroke-linejoin="round"/>
<path d="M155.069 152.59H190.916" stroke="#263238" stroke-linecap="round" stroke-linejoin="round"/>
<path d="M155.069 149.178H190.916" stroke="#263238" stroke-linecap="round" stroke-linejoin="round"/>
<path d="M155.069 145.76H190.916" stroke="#263238" stroke-linecap="round" stroke-linejoin="round"/>
<path d="M278.083 124.246C277.956 124.246 277.834 124.297 277.744 124.387C277.654 124.477 277.603 124.599 277.603 124.726L277.574 125.35H269.827L269.371 136.213H284.251L284.592 127.981L284.707 125.35L284.755 124.266L278.083 124.246Z" fill="#DED9C5" stroke="#263238" stroke-linecap="round" stroke-linejoin="round"/>
<path d="M284.251 136.194L284.184 126.09H269.885L270 136.074L284.251 136.194Z" fill="white" stroke="#263238" stroke-linecap="round" stroke-linejoin="round"/>
<path d="M284.252 136.194L283.599 126.09H269.3L269.415 136.074L284.252 136.194Z" fill="white" stroke="#263238" stroke-linecap="round" stroke-linejoin="round"/>
<path d="M269.371 136.194L267.384 125.778H282.355L284.251 136.194H269.371Z" fill="#DED9C5" stroke="#263238" stroke-linecap="round" stroke-linejoin="round"/>
<path d="M278.083 142.602C277.96 142.601 277.841 142.649 277.752 142.734C277.663 142.818 277.609 142.934 277.603 143.058L277.574 143.686H269.827L269.371 154.549H284.251L284.592 146.312L284.707 143.686L284.755 142.602H278.083Z" fill="#DED9C5" stroke="#263238" stroke-linecap="round" stroke-linejoin="round"/>
<path d="M284.251 154.549L284.184 144.445H269.885L270 154.424L284.251 154.549Z" fill="white" stroke="#263238" stroke-linecap="round" stroke-linejoin="round"/>
<path d="M284.252 154.549L283.599 144.445H269.3L269.415 154.424L284.252 154.549Z" fill="white" stroke="#263238" stroke-linecap="round" stroke-linejoin="round"/>
<path d="M269.371 154.549L267.384 144.128H282.355L284.251 154.549H269.371Z" fill="#DED9C5" stroke="#263238" stroke-linecap="round" stroke-linejoin="round"/>
<path d="M278.083 160.952C277.956 160.952 277.834 161.002 277.744 161.093C277.654 161.183 277.603 161.305 277.603 161.432L277.574 162.056H269.827L269.371 172.918H284.251L284.592 164.686L284.707 162.056L284.755 160.971L278.083 160.952Z" fill="#DED9C5" stroke="#263238" stroke-linecap="round" stroke-linejoin="round"/>
<path d="M284.251 172.899L284.184 162.795H269.885L270 172.779L284.251 172.899Z" fill="white" stroke="#263238" stroke-linecap="round" stroke-linejoin="round"/>
<path d="M284.252 172.899L283.599 162.795H269.3L269.415 172.779L284.252 172.899Z" fill="white" stroke="#263238" stroke-linecap="round" stroke-linejoin="round"/>
<path d="M269.371 172.899L267.384 162.479H282.355L284.251 172.899H269.371Z" fill="#DED9C5" stroke="#263238" stroke-linecap="round" stroke-linejoin="round"/>
<path d="M278.083 179.307C277.96 179.307 277.841 179.354 277.752 179.439C277.663 179.524 277.609 179.64 277.603 179.763L277.574 180.392H269.827L269.371 191.254H284.251L284.592 183.018L284.707 180.392L284.755 179.307H278.083Z" fill="#DED9C5" stroke="#263238" stroke-linecap="round" stroke-linejoin="round"/>
<path d="M284.251 191.254L284.184 181.15H269.885L270 191.13L284.251 191.254Z" fill="white" stroke="#263238" stroke-linecap="round" stroke-linejoin="round"/>
<path d="M284.252 191.254L283.599 181.15H269.3L269.415 191.13L284.252 191.254Z" fill="white" stroke="#263238" stroke-linecap="round" stroke-linejoin="round"/>
<path d="M269.371 191.254L267.384 180.833H282.355L284.251 191.254H269.371Z" fill="#DED9C5" stroke="#263238" stroke-linecap="round" stroke-linejoin="round"/>
<mask id="mask1_712_3125" style="mask-type:luminance" maskUnits="userSpaceOnUse" x="201" y="114" width="51" height="97">
<path d="M251.428 114.805H201.201V210.776H251.428V114.805Z" fill="white"/>
</mask>
<g mask="url(#mask1_712_3125)">
<path d="M237.225 208.808C237.878 209.749 238.232 210.864 238.242 212.009C238.146 213.661 242.226 215.461 243.345 214.779C244.463 214.097 244.655 212.254 243.825 211.088C243.051 210.084 242.224 209.123 241.348 208.208C241.103 207.915 241.103 207.675 240.325 207.675C239.548 207.675 237.517 207.641 237.225 208.808Z" fill="#263238" stroke="#263238" stroke-linecap="round" stroke-linejoin="round"/>
<path d="M244.045 211.467C244.063 211.879 244.023 212.291 243.925 212.691C243.681 213.565 243.445 213.613 243.445 213.613L243.009 212.931L242.087 213.176L242.039 214.049C241.513 214.078 240.987 214.013 240.484 213.857C239.946 213.613 238.881 213.032 238.684 211.865C238.475 211.008 238.114 210.195 237.618 209.465C238.045 210.244 238.262 211.121 238.247 212.009C238.151 213.661 242.231 215.461 243.349 214.779C244.348 214.169 244.602 212.619 244.045 211.467Z" fill="white" stroke="#263238" stroke-linecap="round" stroke-linejoin="round"/>
<path d="M226.977 207.593C226.08 208.374 225.104 209.057 224.064 209.633C222.513 210.459 220.704 210.113 220.473 210.896C220.243 211.678 221.491 212.398 224.313 212.787C227.136 213.176 227.616 212.494 228.83 212.057C230.044 211.621 232.19 211.961 232.67 211.621C233.15 211.28 232.718 209.969 232.526 208.741C232.334 207.512 232.233 207.19 232.233 207.19C231.388 207.599 230.442 207.751 229.512 207.627C228.672 207.508 227.82 207.496 226.977 207.593Z" fill="#263238" stroke="#263238" stroke-linecap="round" stroke-linejoin="round"/>
<path d="M228.825 212.057C230.04 211.621 232.185 211.961 232.665 211.621C232.992 211.395 232.9 210.723 232.747 209.941C232.252 210.262 231.718 210.516 231.158 210.699C229.858 211.001 228.576 211.375 227.318 211.817C225.886 212.31 224.318 212.222 222.95 211.573C221.736 211.093 222.22 211.136 222.364 210.651C222.392 210.571 222.4 210.486 222.387 210.402C222.375 210.319 222.342 210.239 222.292 210.171C221.371 210.339 220.622 210.392 220.473 210.877C220.228 211.649 221.491 212.379 224.313 212.768C227.136 213.157 227.611 212.48 228.825 212.057Z" fill="white" stroke="#263238" stroke-linecap="round" stroke-linejoin="round"/>
<path d="M224.212 158.984C224.212 158.984 223.871 162.238 223.871 169.376C223.854 174.797 224.161 180.215 224.792 185.6C225.181 188.561 225.272 188.609 225.325 188.998C225.378 189.387 227.173 200.408 227.173 201.089V202.011C227.173 202.011 226.213 202.971 226.54 203.859C226.866 204.747 227.466 206.528 227.317 206.576C227.168 206.624 226.64 206.869 226.64 207.305V207.742C227.273 208.445 228.13 208.908 229.064 209.053C230.764 209.393 231.301 209.638 231.738 209.005C232.294 208.262 232.706 207.422 232.952 206.528C233.144 205.606 233.389 205.169 232.804 204.248C232.218 203.326 232.026 202.933 232.026 202.448C232.026 201.963 232.708 193.904 232.271 191.134C231.834 188.365 231.445 186.56 231.445 185.12C231.445 183.68 231.882 171.133 231.882 171.133C231.882 171.133 234.359 186.622 234.652 189.973C234.944 193.323 235.866 201.824 235.765 202.357C235.664 202.889 234.94 203.715 235.285 204.589C235.642 205.344 236.08 206.059 236.591 206.72C236.488 206.806 236.418 206.925 236.391 207.057C236.365 207.189 236.385 207.326 236.447 207.445C236.644 207.925 237.032 208.755 237.224 208.808C237.416 208.861 241.352 208.222 241.352 208.222C241.352 208.222 242.759 205.793 242.312 204.531C241.866 203.269 241.439 202.688 241.439 202.544C241.679 201.243 241.84 199.928 241.919 198.608C241.967 196.861 240.368 179.624 240.368 179.624C240.368 179.624 239.687 164.033 239.687 163.889C239.687 163.745 239.543 161.264 239.543 161.264C239.543 161.264 234.392 164.667 229.976 163.208C225.56 161.749 224.212 158.984 224.212 158.984Z" fill="#DED9C5" stroke="#263238" stroke-linecap="round" stroke-linejoin="round"/>
<path d="M231.883 171.123L231.302 169.28" stroke="#263238" stroke-linecap="round" stroke-linejoin="round"/>
<path d="M232.026 169.765L229.938 168.502" stroke="#263238" stroke-linecap="round" stroke-linejoin="round"/>
<path d="M231.561 132.45C231.561 132.45 228.023 131.936 227.462 132.31C226.9 132.685 224.903 135.8 223.924 137.11C222.945 138.421 216.379 143.96 216.379 143.96L210.643 132.92C210.83 132.092 210.954 131.251 211.012 130.405C211.012 129.57 210.595 129.056 210.595 128.264C210.595 127.472 210.969 126.306 210.782 126.027C210.595 125.749 210.081 126.075 209.755 126.632C209.428 127.189 209.476 128.73 209.476 128.73C209.476 128.73 206.558 125.13 206.308 124.678C206.241 124.554 205.751 124.582 205.751 124.957C205.751 125.331 207.566 128.73 207.566 128.73C207.566 128.73 207.379 129.008 207.196 129.008C207.014 129.008 204.446 125.936 204.316 125.888C204.187 125.84 203.759 125.936 203.99 126.445C204.22 126.954 206.179 129.57 206.179 129.57C205.802 129.579 205.428 129.626 205.06 129.709C205.007 129.743 204.962 129.79 204.93 129.845C204.898 129.899 204.879 129.961 204.875 130.024C204.871 130.088 204.881 130.151 204.906 130.21C204.931 130.268 204.969 130.32 205.017 130.362C205.181 130.515 205.369 130.64 205.574 130.731C205.574 130.731 205.622 131.014 205.665 131.48C205.641 131.763 205.687 132.047 205.801 132.307C205.916 132.567 206.093 132.794 206.318 132.968C206.793 133.409 207.347 133.757 207.95 133.995C208.18 134.038 213.172 148.683 213.964 149.989C214.756 151.294 215.131 151.338 216.014 151.102C216.897 150.867 225.599 144.32 225.599 144.32C225.599 144.32 225.23 156.291 224.807 157.131C224.385 157.971 223.924 157.971 223.924 158.528C223.948 159.012 224.01 159.494 224.111 159.968C224.111 159.968 226.439 163.88 231.191 164.019C235.943 164.158 240.273 162.248 240.273 161.365C240.239 160.808 240.129 160.259 239.947 159.733C239.947 159.55 240.508 158.662 240.427 158.106C240.345 157.549 240.009 157.405 240.1 156.57C240.191 155.734 244.199 143.758 244.387 140.077C244.574 136.395 244.617 136.117 243.734 135.469C242.851 134.821 239.587 134.254 239.587 134.254L234.091 132.858L231.902 132.67L231.561 132.45Z" fill="#D9D9D9" stroke="#263238" stroke-linecap="round" stroke-linejoin="round"/>
<path d="M244.372 140.086C244.559 136.409 244.602 136.126 243.719 135.478C242.836 134.83 239.572 134.264 239.572 134.264L234.076 132.867L231.887 132.68L231.56 132.449C231.56 132.449 228.023 131.936 227.461 132.31C226.9 132.685 224.903 135.8 223.924 137.11C222.944 138.421 216.378 143.96 216.378 143.96L214.458 140.057L210.949 142.4C212.389 146.201 213.647 149.461 213.954 149.969C214.746 151.27 215.12 151.318 216.004 151.083C216.887 150.848 225.599 144.32 225.599 144.32C225.599 144.32 225.229 156.291 224.807 157.131C224.384 157.971 223.924 157.971 223.924 158.528C223.947 159.012 224.01 159.494 224.111 159.968C224.111 159.968 226.439 163.88 231.191 164.019C235.943 164.158 240.272 162.248 240.272 161.365C240.238 160.808 240.128 160.259 239.946 159.733C239.946 159.55 240.508 158.662 240.426 158.105C240.344 157.549 240.008 157.405 240.1 156.569C240.191 155.734 244.184 143.768 244.372 140.086Z" fill="#263238" stroke="#263238" stroke-linecap="round" stroke-linejoin="round"/>
<path d="M225.623 138.819L225.599 144.325L224.433 138.872" stroke="white" stroke-width="0.75" stroke-linecap="round" stroke-linejoin="round"/>
<path d="M224.639 160.294C229.335 161.571 234.305 161.419 238.914 159.857" stroke="white" stroke-width="0.75" stroke-linecap="round" stroke-linejoin="round"/>
<path d="M235.271 162.459C235.751 162.401 236.203 162.329 236.711 162.238" stroke="white" stroke-width="0.75" stroke-linecap="round" stroke-linejoin="round"/>
<path d="M225.911 160.928C225.911 160.928 228.479 162.661 233.145 162.603" stroke="white" stroke-width="0.75" stroke-linecap="round" stroke-linejoin="round"/>
<path d="M209.476 128.705C209.451 129.036 209.351 129.356 209.183 129.641C208.9 130.121 208.544 130.289 208.496 131.129C208.479 131.364 208.516 131.6 208.605 131.819C208.694 132.037 208.833 132.231 209.01 132.387" stroke="#263238" stroke-linecap="round" stroke-linejoin="round"/>
<path d="M206.495 130.054C206.495 130.054 204.633 128.753 204.258 128.984C204.156 129.055 204.07 129.147 204.007 129.254C203.943 129.362 203.904 129.481 203.891 129.605C203.877 129.729 203.891 129.854 203.93 129.972C203.97 130.09 204.034 130.198 204.119 130.289C204.541 130.664 206.356 130.942 206.682 130.769C207.009 130.597 206.793 130.246 206.495 130.054Z" fill="#D9D9D9" stroke="#263238" stroke-linecap="round" stroke-linejoin="round"/>
<path d="M207.071 131.499C207.071 131.499 205.771 131.221 205.454 131.168C205.137 131.115 204.95 131.293 204.974 131.624C204.998 131.955 205.319 132.161 205.823 132.181C206.327 132.2 207.446 132.387 207.494 131.902C207.508 131.845 207.507 131.784 207.49 131.727C207.474 131.67 207.443 131.619 207.4 131.578C207.357 131.537 207.304 131.508 207.246 131.494C207.188 131.48 207.128 131.482 207.071 131.499Z" fill="#D9D9D9" stroke="#263238" stroke-linecap="round" stroke-linejoin="round"/>
<path d="M234.09 129.737C234.09 129.737 236.687 129.656 237.57 129.233" stroke="#263238" stroke-linecap="round" stroke-linejoin="round"/>
<path d="M240.09 138.08C240.09 138.08 234.81 143.47 233.096 145.51C231.907 146.892 230.608 148.176 229.213 149.35L217.477 141.55C217.036 140.893 216.63 140.212 216.263 139.51C215.922 138.781 215.389 138.589 214.952 137.47C214.516 136.352 214.074 135.627 213.738 136.405C213.402 137.182 213.541 137.422 213.738 137.811C213.935 138.2 214.612 139.366 214.612 139.366C214.612 139.366 211.698 138.2 210.676 137.763C209.653 137.326 208.588 137.182 208.54 137.571C208.492 137.96 208.688 137.907 209.173 138.104C209.658 138.301 212.668 139.947 212.668 139.947L212.375 140.096C212.375 140.096 208.396 139.366 208.007 139.318C207.618 139.27 207.714 139.798 208.007 139.947C208.3 140.096 209.802 140.821 209.802 140.821C209.802 140.821 209.461 141.113 209.85 141.646C210.221 142.086 210.645 142.478 211.112 142.813C211.197 143.166 211.384 143.487 211.65 143.734C212.039 144.027 214.564 143.979 215.629 144.075C216.163 144.1 216.689 144.215 217.184 144.416C217.184 144.416 229.554 154.976 230.38 154.976C231.205 154.976 242.711 144.099 243.973 142.496C245.236 140.893 246.157 138.08 245.384 136.769C244.612 135.459 243.392 135.166 242.615 135.454" fill="#CCCCCC"/>
<path d="M240.09 138.08C240.09 138.08 234.81 143.47 233.096 145.51C231.907 146.892 230.608 148.176 229.213 149.35L217.477 141.55C217.036 140.893 216.63 140.212 216.263 139.51C215.922 138.781 215.389 138.589 214.952 137.47C214.516 136.352 214.074 135.627 213.738 136.405C213.402 137.182 213.541 137.422 213.738 137.811C213.935 138.2 214.612 139.366 214.612 139.366C214.612 139.366 211.698 138.2 210.676 137.763C209.653 137.326 208.588 137.182 208.54 137.571C208.492 137.96 208.688 137.907 209.173 138.104C209.658 138.301 212.668 139.947 212.668 139.947L212.375 140.096C212.375 140.096 208.396 139.366 208.007 139.318C207.618 139.27 207.714 139.798 208.007 139.947C208.3 140.096 209.802 140.821 209.802 140.821C209.802 140.821 209.461 141.113 209.85 141.646C210.221 142.086 210.645 142.478 211.112 142.813C211.197 143.166 211.384 143.487 211.65 143.734C212.039 144.027 214.564 143.979 215.629 144.075C216.163 144.1 216.689 144.215 217.184 144.416C217.184 144.416 229.554 154.976 230.38 154.976C231.205 154.976 242.711 144.099 243.973 142.496C245.236 140.893 246.157 138.08 245.384 136.769C244.612 135.459 243.392 135.166 242.615 135.454" stroke="#263238" stroke-linecap="round" stroke-linejoin="round"/>
<path d="M209.803 140.792C209.803 140.792 211.358 141.329 211.843 141.473L209.803 140.792Z" fill="white"/>
<path d="M209.803 140.792C209.803 140.792 211.358 141.329 211.843 141.473" stroke="#263238" stroke-linecap="round" stroke-linejoin="round"/>
<path d="M211.112 142.784L212.135 142.928" stroke="#263238" stroke-linecap="round" stroke-linejoin="round"/>
<path d="M240.09 138.08C240.09 138.08 234.81 143.47 233.096 145.51C231.907 146.892 230.608 148.176 229.213 149.35L226.079 147.291L224.303 150.627C227.399 152.993 230.063 154.947 230.384 154.947C231.205 154.947 242.716 144.07 243.978 142.467C245.24 140.864 246.162 138.051 245.389 136.741C244.616 135.43 243.397 135.137 242.62 135.425L241.914 135.872" fill="#263238"/>
<path d="M240.09 138.08C240.09 138.08 234.81 143.47 233.096 145.51C231.907 146.892 230.608 148.176 229.213 149.35L226.079 147.291L224.303 150.627C227.399 152.993 230.063 154.947 230.384 154.947C231.205 154.947 242.716 144.07 243.978 142.467C245.24 140.864 246.162 138.051 245.389 136.741C244.616 135.43 243.397 135.137 242.62 135.425L241.914 135.872" stroke="white" stroke-width="0.75" stroke-linecap="round" stroke-linejoin="round"/>
<path d="M239.572 134.264L234.076 132.867L232.329 132.713L231.561 132.449C231.561 132.449 231.163 132.392 230.601 132.329L230.462 143.009L241.44 134.657C240.48 134.417 239.572 134.264 239.572 134.264Z" fill="white" stroke="#263238" stroke-linecap="round" stroke-linejoin="round"/>
<path d="M238.199 117.166C237.05 117.135 235.935 117.556 235.093 118.337C233.836 119.633 233.754 120.473 233.25 120.934C232.746 121.395 231.781 121.352 231.114 122.777C230.447 124.203 229.938 127.179 230.063 128.144C230.188 129.109 231.023 129.401 231.824 129.526C232.626 129.651 234.09 129.737 234.09 129.737C234.09 129.737 233.874 132.886 233.668 132.838C233.461 132.79 232.328 132.713 232.328 132.713C232.328 132.713 232.117 137.619 232.079 138.833L232.036 140.053L239.692 134.24L238.199 133.616C238.24 132.649 238.402 131.691 238.679 130.765C238.91 130.029 239.204 129.314 239.557 128.629C239.557 128.629 241.957 127.832 243.248 126.032C244.29 124.592 244.256 122.513 243.69 120.891C243.366 119.943 242.79 119.101 242.024 118.456C241.258 117.811 240.33 117.387 239.341 117.229C238.963 117.17 238.581 117.149 238.199 117.166Z" fill="#D9D9D9" stroke="#263238" stroke-linecap="round" stroke-linejoin="round"/>
<path d="M234.004 121.942C233.593 122.4 233.129 122.807 232.622 123.157C231.95 123.574 232.454 124.371 233.294 124.664C234.134 124.957 234.384 124.582 234.384 124.582" stroke="#263238" stroke-linecap="round" stroke-linejoin="round"/>
<path d="M234.508 126.051C234.508 126.051 232.79 125.797 231.993 125.043C232.048 125.276 232.162 125.49 232.323 125.667C232.484 125.843 232.688 125.975 232.915 126.051C233.439 126.169 233.984 126.169 234.508 126.051Z" stroke="#263238" stroke-width="0.75" stroke-linecap="round" stroke-linejoin="round"/>
<path d="M236.941 120.853C237.234 120.944 237.494 121.12 237.688 121.358C237.881 121.596 238.001 121.886 238.031 122.192" stroke="#263238" stroke-linecap="round" stroke-linejoin="round"/>
<path d="M235.516 120.181C235.307 120.004 235.047 119.9 234.774 119.884C234.502 119.869 234.231 119.942 234.004 120.094" stroke="#263238" stroke-linecap="round" stroke-linejoin="round"/>
<path d="M236.184 122.485C236.006 122.768 235.756 122.931 235.632 122.854C235.507 122.777 235.545 122.475 235.723 122.192C235.9 121.909 236.15 121.745 236.28 121.827C236.409 121.909 236.366 122.201 236.184 122.485Z" fill="#263238"/>
<path d="M233.798 121.313C233.615 121.597 233.37 121.76 233.241 121.678C233.111 121.597 233.154 121.304 233.337 121.021C233.519 120.737 233.764 120.574 233.889 120.651C234.014 120.728 233.975 121.025 233.798 121.313Z" fill="#263238"/>
<path d="M235.262 123.238C235.262 123.238 236.563 123.281 236.98 123.785" stroke="#263238" stroke-width="0.75" stroke-linecap="round" stroke-linejoin="round"/>
<path d="M243.671 120.91C243.347 119.962 242.771 119.121 242.005 118.475C241.238 117.83 240.311 117.406 239.322 117.248C238.951 117.184 238.575 117.157 238.199 117.166C237.77 117.17 237.343 117.225 236.927 117.329C237.088 117.573 237.291 117.785 237.527 117.958C237.911 118.241 238.996 118.126 240.167 118.63C241.338 119.134 242.053 120.809 241.3 121.813C240.546 122.816 239.768 121.577 239.38 122.499C239.206 122.956 239.059 123.422 238.938 123.896C238.924 124.057 238.936 124.218 238.972 124.376C239.106 124.856 239.423 125.096 239.245 125.336C239.068 125.576 238.789 125.816 238.789 126.147C238.792 126.234 238.828 126.316 238.89 126.377C239.6 126.094 241.098 125.605 241.29 126.497C241.54 127.669 240.536 128.259 239.74 128.384C239.113 128.428 238.484 128.343 237.892 128.134C237.892 128.134 238.184 128.816 239.389 128.95C239.476 128.773 239.528 128.677 239.528 128.677C239.528 128.677 241.928 127.88 243.22 126.08C244.271 124.601 244.237 122.533 243.671 120.91Z" fill="#263238" stroke="#263238" stroke-linecap="round" stroke-linejoin="round"/>
</g>
<path d="M238.81 79.5487C238.811 77.8652 238.48 76.1982 237.836 74.6427C237.192 73.0873 236.248 71.6739 235.058 70.4833C233.868 69.2927 232.455 68.3483 230.9 67.7039C229.344 67.0595 227.677 66.7279 225.994 66.7279C225.26 66.7282 224.528 66.7924 223.805 66.9199C223.814 62.0823 221.901 57.4394 218.487 54.0124C215.072 50.5854 210.436 48.6552 205.599 48.6463C200.761 48.6374 196.118 50.5505 192.691 53.9649C189.264 57.3792 187.334 62.0151 187.325 66.8527C186.738 66.7722 186.147 66.7305 185.554 66.7279C182.211 66.7137 178.995 68.0064 176.591 70.3302C174.188 72.6541 172.787 75.8251 172.689 79.1668C172.591 82.5086 173.802 85.7564 176.065 88.2176C178.327 90.6787 181.462 92.1583 184.8 92.3407H226.781C230.038 92.1403 233.095 90.7053 235.331 88.3283C237.566 85.9514 238.81 82.8114 238.81 79.5487Z" fill="white" stroke="#263238" stroke-linecap="round" stroke-linejoin="round"/>
<path d="M212.376 79.0688L204.231 72.3008L196.085 79.0688H197.875V100.832H210.591V79.0688H212.376Z" fill="#263238"/>
<path d="M205.652 96.6367C205.5 96.6389 205.355 96.6986 205.245 96.8037C205.136 96.9088 205.07 97.0515 205.062 97.2031L205.033 97.9711H195.495L194.934 111.339H213.241L213.663 101.206L213.807 97.9711L213.865 96.6367H205.652Z" fill="#DED9C5" stroke="#263238" stroke-linecap="round" stroke-linejoin="round"/>
<path d="M213.24 111.339L213.163 98.9023H195.566L195.706 111.186L213.24 111.339Z" fill="white" stroke="#263238" stroke-linecap="round" stroke-linejoin="round"/>
<path d="M213.24 111.339L212.443 98.9023H194.847L194.986 111.186L213.24 111.339Z" fill="white" stroke="#263238" stroke-linecap="round" stroke-linejoin="round"/>
<path d="M194.933 111.339L192.485 98.5183H210.908L213.241 111.339H194.933Z" fill="#DED9C5" stroke="#263238" stroke-linecap="round" stroke-linejoin="round"/>
<path d="M196.724 94.376V95.2304" stroke="#263238" stroke-linecap="round" stroke-linejoin="round"/>
<path d="M196.724 89.624V93.5168" stroke="#263238" stroke-linecap="round" stroke-linejoin="round"/>
<path d="M211.69 85.4958V88.7646" stroke="#263238" stroke-linecap="round" stroke-linejoin="round"/>
<path d="M206.002 111.906V115.174" stroke="#263238" stroke-linecap="round" stroke-linejoin="round"/>
<path d="M213.097 116.883V124.285" stroke="#263238" stroke-linecap="round" stroke-linejoin="round"/>
<path d="M213.097 114.315V115.717" stroke="#263238" stroke-linecap="round" stroke-linejoin="round"/>
<path d="M196.35 114.003V116.648" stroke="#263238" stroke-linecap="round" stroke-linejoin="round"/>
<path d="M198.062 126.229V126.853" stroke="#263238" stroke-linecap="round" stroke-linejoin="round"/>
<path d="M198.062 115.635V125.374" stroke="#263238" stroke-linecap="round" stroke-linejoin="round"/>
<path d="M287.208 94.9904C287.211 93.8924 286.974 92.807 286.512 91.8107C286.051 90.8145 285.376 89.9315 284.536 89.2241C283.697 88.5166 282.712 88.0018 281.652 87.716C280.592 87.4301 279.482 87.3801 278.4 87.5696C278.346 84.7653 277.195 82.0938 275.195 80.1279C273.194 78.162 270.503 77.0583 267.698 77.0532C264.893 77.0482 262.198 78.1424 260.191 80.1011C258.183 82.0598 257.023 84.7271 256.959 87.5312C256.614 87.4812 256.266 87.4555 255.917 87.4544C253.96 87.4569 252.08 88.2209 250.676 89.5849C249.272 90.9488 248.453 92.8056 248.394 94.7623C248.335 96.7189 249.039 98.6218 250.358 100.068C251.677 101.515 253.507 102.391 255.461 102.512H280.138C282.052 102.392 283.848 101.548 285.162 100.151C286.475 98.7534 287.207 96.9081 287.208 94.9904Z" fill="white" stroke="#263238" stroke-linecap="round" stroke-linejoin="round"/>
<path d="M259.704 54.7183C259.704 53.5917 259.256 52.5112 258.46 51.7145C257.663 50.9179 256.583 50.4703 255.456 50.4703C255.213 50.469 254.97 50.4899 254.731 50.5327C254.731 48.9299 254.095 47.3928 252.961 46.2595C251.828 45.1262 250.291 44.4895 248.688 44.4895C247.085 44.4895 245.548 45.1262 244.415 46.2595C243.282 47.3928 242.645 48.9299 242.645 50.5327C242.449 50.5077 242.252 50.4948 242.054 50.4943C240.955 50.5019 239.901 50.9356 239.115 51.704C238.329 52.4725 237.871 53.5159 237.838 54.6149C237.805 55.7139 238.199 56.7829 238.938 57.5971C239.677 58.4112 240.703 58.9072 241.8 58.9807H255.72C256.803 58.9133 257.819 58.4342 258.56 57.6416C259.3 56.8491 259.71 55.8031 259.704 54.7183Z" fill="white" stroke="#263238" stroke-linecap="round" stroke-linejoin="round"/>
<rect x="101" y="248" width="230" height="44" fill="#DED9C5"/>
<rect x="101" y="248" width="230" height="44" stroke="#423EC7" stroke-width="2"/>
<path d="M127.524 276.18C126.564 276.18 125.67 276.024 124.842 275.712C124.026 275.388 123.312 274.938 122.7 274.362C122.1 273.774 121.632 273.084 121.296 272.292C120.96 271.5 120.792 270.636 120.792 269.7C120.792 268.764 120.96 267.9 121.296 267.108C121.632 266.316 122.106 265.632 122.718 265.056C123.33 264.468 124.044 264.018 124.86 263.706C125.676 263.382 126.57 263.22 127.542 263.22C128.574 263.22 129.516 263.4 130.368 263.76C131.22 264.108 131.94 264.63 132.528 265.326L131.016 266.748C130.56 266.256 130.05 265.89 129.486 265.65C128.922 265.398 128.31 265.272 127.65 265.272C126.99 265.272 126.384 265.38 125.832 265.596C125.292 265.812 124.818 266.118 124.41 266.514C124.014 266.91 123.702 267.378 123.474 267.918C123.258 268.458 123.15 269.052 123.15 269.7C123.15 270.348 123.258 270.942 123.474 271.482C123.702 272.022 124.014 272.49 124.41 272.886C124.818 273.282 125.292 273.588 125.832 273.804C126.384 274.02 126.99 274.128 127.65 274.128C128.31 274.128 128.922 274.008 129.486 273.768C130.05 273.516 130.56 273.138 131.016 272.634L132.528 274.074C131.94 274.758 131.22 275.28 130.368 275.64C129.516 276 128.568 276.18 127.524 276.18ZM140.008 266.28C140.776 266.28 141.46 266.43 142.06 266.73C142.672 267.03 143.152 267.492 143.5 268.116C143.848 268.728 144.022 269.52 144.022 270.492V276H141.772V270.78C141.772 269.928 141.568 269.292 141.16 268.872C140.764 268.452 140.206 268.242 139.486 268.242C138.958 268.242 138.49 268.35 138.082 268.566C137.674 268.782 137.356 269.106 137.128 269.538C136.912 269.958 136.804 270.492 136.804 271.14V276H134.554V262.644H136.804V268.98L136.318 268.188C136.654 267.576 137.14 267.108 137.776 266.784C138.424 266.448 139.168 266.28 140.008 266.28ZM151.214 276.126C150.23 276.126 149.354 275.916 148.586 275.496C147.818 275.064 147.212 274.476 146.768 273.732C146.324 272.988 146.102 272.142 146.102 271.194C146.102 270.234 146.324 269.388 146.768 268.656C147.212 267.912 147.818 267.33 148.586 266.91C149.354 266.49 150.23 266.28 151.214 266.28C152.21 266.28 153.092 266.49 153.86 266.91C154.64 267.33 155.246 267.906 155.678 268.638C156.122 269.37 156.344 270.222 156.344 271.194C156.344 272.142 156.122 272.988 155.678 273.732C155.246 274.476 154.64 275.064 153.86 275.496C153.092 275.916 152.21 276.126 151.214 276.126ZM151.214 274.2C151.766 274.2 152.258 274.08 152.69 273.84C153.122 273.6 153.458 273.252 153.698 272.796C153.95 272.34 154.076 271.806 154.076 271.194C154.076 270.57 153.95 270.036 153.698 269.592C153.458 269.136 153.122 268.788 152.69 268.548C152.258 268.308 151.772 268.188 151.232 268.188C150.68 268.188 150.188 268.308 149.756 268.548C149.336 268.788 149 269.136 148.748 269.592C148.496 270.036 148.37 270.57 148.37 271.194C148.37 271.806 148.496 272.34 148.748 272.796C149 273.252 149.336 273.6 149.756 273.84C150.188 274.08 150.674 274.2 151.214 274.2ZM162.816 276.126C161.832 276.126 160.956 275.916 160.188 275.496C159.42 275.064 158.814 274.476 158.37 273.732C157.926 272.988 157.704 272.142 157.704 271.194C157.704 270.234 157.926 269.388 158.37 268.656C158.814 267.912 159.42 267.33 160.188 266.91C160.956 266.49 161.832 266.28 162.816 266.28C163.812 266.28 164.694 266.49 165.462 266.91C166.242 267.33 166.848 267.906 167.28 268.638C167.724 269.37 167.946 270.222 167.946 271.194C167.946 272.142 167.724 272.988 167.28 273.732C166.848 274.476 166.242 275.064 165.462 275.496C164.694 275.916 163.812 276.126 162.816 276.126ZM162.816 274.2C163.368 274.2 163.86 274.08 164.292 273.84C164.724 273.6 165.06 273.252 165.3 272.796C165.552 272.34 165.678 271.806 165.678 271.194C165.678 270.57 165.552 270.036 165.3 269.592C165.06 269.136 164.724 268.788 164.292 268.548C163.86 268.308 163.374 268.188 162.834 268.188C162.282 268.188 161.79 268.308 161.358 268.548C160.938 268.788 160.602 269.136 160.35 269.592C160.098 270.036 159.972 270.57 159.972 271.194C159.972 271.806 160.098 272.34 160.35 272.796C160.602 273.252 160.938 273.6 161.358 273.84C161.79 274.08 162.276 274.2 162.816 274.2ZM173.067 276.126C172.263 276.126 171.489 276.024 170.745 275.82C170.013 275.604 169.431 275.346 168.999 275.046L169.863 273.336C170.295 273.612 170.811 273.84 171.411 274.02C172.011 274.2 172.611 274.29 173.211 274.29C173.919 274.29 174.429 274.194 174.741 274.002C175.065 273.81 175.227 273.552 175.227 273.228C175.227 272.964 175.119 272.766 174.903 272.634C174.687 272.49 174.405 272.382 174.057 272.31C173.709 272.238 173.319 272.172 172.887 272.112C172.467 272.052 172.041 271.974 171.609 271.878C171.189 271.77 170.805 271.62 170.457 271.428C170.109 271.224 169.827 270.954 169.611 270.618C169.395 270.282 169.287 269.838 169.287 269.286C169.287 268.674 169.461 268.146 169.809 267.702C170.157 267.246 170.643 266.898 171.267 266.658C171.903 266.406 172.653 266.28 173.517 266.28C174.165 266.28 174.819 266.352 175.479 266.496C176.139 266.64 176.685 266.844 177.117 267.108L176.253 268.818C175.797 268.542 175.335 268.356 174.867 268.26C174.411 268.152 173.955 268.098 173.499 268.098C172.815 268.098 172.305 268.2 171.969 268.404C171.645 268.608 171.483 268.866 171.483 269.178C171.483 269.466 171.591 269.682 171.807 269.826C172.023 269.97 172.305 270.084 172.653 270.168C173.001 270.252 173.385 270.324 173.805 270.384C174.237 270.432 174.663 270.51 175.083 270.618C175.503 270.726 175.887 270.876 176.235 271.068C176.595 271.248 176.883 271.506 177.099 271.842C177.315 272.178 177.423 272.616 177.423 273.156C177.423 273.756 177.243 274.278 176.883 274.722C176.535 275.166 176.037 275.514 175.389 275.766C174.741 276.006 173.967 276.126 173.067 276.126ZM183.879 276.126C182.811 276.126 181.875 275.916 181.071 275.496C180.279 275.064 179.661 274.476 179.217 273.732C178.785 272.988 178.569 272.142 178.569 271.194C178.569 270.234 178.779 269.388 179.199 268.656C179.631 267.912 180.219 267.33 180.963 266.91C181.719 266.49 182.577 266.28 183.537 266.28C184.473 266.28 185.307 266.484 186.039 266.892C186.771 267.3 187.347 267.876 187.767 268.62C188.187 269.364 188.397 270.24 188.397 271.248C188.397 271.344 188.391 271.452 188.379 271.572C188.379 271.692 188.373 271.806 188.361 271.914H180.351V270.42H187.173L186.291 270.888C186.303 270.336 186.189 269.85 185.949 269.43C185.709 269.01 185.379 268.68 184.959 268.44C184.551 268.2 184.077 268.08 183.537 268.08C182.985 268.08 182.499 268.2 182.079 268.44C181.671 268.68 181.347 269.016 181.107 269.448C180.879 269.868 180.765 270.366 180.765 270.942V271.302C180.765 271.878 180.897 272.388 181.161 272.832C181.425 273.276 181.797 273.618 182.277 273.858C182.757 274.098 183.309 274.218 183.933 274.218C184.473 274.218 184.959 274.134 185.391 273.966C185.823 273.798 186.207 273.534 186.543 273.174L187.749 274.56C187.317 275.064 186.771 275.454 186.111 275.73C185.463 275.994 184.719 276.126 183.879 276.126ZM199.853 276.126C198.869 276.126 197.993 275.916 197.225 275.496C196.457 275.064 195.851 274.476 195.407 273.732C194.963 272.988 194.741 272.142 194.741 271.194C194.741 270.234 194.963 269.388 195.407 268.656C195.851 267.912 196.457 267.33 197.225 266.91C197.993 266.49 198.869 266.28 199.853 266.28C200.849 266.28 201.731 266.49 202.499 266.91C203.279 267.33 203.885 267.906 204.317 268.638C204.761 269.37 204.983 270.222 204.983 271.194C204.983 272.142 204.761 272.988 204.317 273.732C203.885 274.476 203.279 275.064 202.499 275.496C201.731 275.916 200.849 276.126 199.853 276.126ZM199.853 274.2C200.405 274.2 200.897 274.08 201.329 273.84C201.761 273.6 202.097 273.252 202.337 272.796C202.589 272.34 202.715 271.806 202.715 271.194C202.715 270.57 202.589 270.036 202.337 269.592C202.097 269.136 201.761 268.788 201.329 268.548C200.897 268.308 200.411 268.188 199.871 268.188C199.319 268.188 198.827 268.308 198.395 268.548C197.975 268.788 197.639 269.136 197.387 269.592C197.135 270.036 197.009 270.57 197.009 271.194C197.009 271.806 197.135 272.34 197.387 272.796C197.639 273.252 197.975 273.6 198.395 273.84C198.827 274.08 199.313 274.2 199.853 274.2ZM207.134 276V266.388H209.276V269.034L209.024 268.26C209.312 267.612 209.762 267.12 210.374 266.784C210.998 266.448 211.772 266.28 212.696 266.28V268.422C212.6 268.398 212.51 268.386 212.426 268.386C212.342 268.374 212.258 268.368 212.174 268.368C211.322 268.368 210.644 268.62 210.14 269.124C209.636 269.616 209.384 270.354 209.384 271.338V276H207.134ZM219.883 276V263.4H225.391C226.759 263.4 227.959 263.664 228.991 264.192C230.023 264.72 230.827 265.452 231.403 266.388C231.979 267.324 232.267 268.428 232.267 269.7C232.267 270.96 231.979 272.064 231.403 273.012C230.827 273.948 230.023 274.68 228.991 275.208C227.959 275.736 226.759 276 225.391 276H219.883ZM222.223 274.02H225.283C226.231 274.02 227.047 273.84 227.731 273.48C228.427 273.12 228.961 272.616 229.333 271.968C229.717 271.32 229.909 270.564 229.909 269.7C229.909 268.824 229.717 268.068 229.333 267.432C228.961 266.784 228.427 266.28 227.731 265.92C227.047 265.56 226.231 265.38 225.283 265.38H222.223V274.02ZM234.539 276V266.388H236.681V269.034L236.429 268.26C236.717 267.612 237.167 267.12 237.779 266.784C238.403 266.448 239.177 266.28 240.101 266.28V268.422C240.005 268.398 239.915 268.386 239.831 268.386C239.747 268.374 239.663 268.368 239.579 268.368C238.727 268.368 238.049 268.62 237.545 269.124C237.041 269.616 236.789 270.354 236.789 271.338V276H234.539ZM246.241 276.126C245.257 276.126 244.381 275.916 243.613 275.496C242.845 275.064 242.239 274.476 241.795 273.732C241.351 272.988 241.129 272.142 241.129 271.194C241.129 270.234 241.351 269.388 241.795 268.656C242.239 267.912 242.845 267.33 243.613 266.91C244.381 266.49 245.257 266.28 246.241 266.28C247.237 266.28 248.119 266.49 248.887 266.91C249.667 267.33 250.273 267.906 250.705 268.638C251.149 269.37 251.371 270.222 251.371 271.194C251.371 272.142 251.149 272.988 250.705 273.732C250.273 274.476 249.667 275.064 248.887 275.496C248.119 275.916 247.237 276.126 246.241 276.126ZM246.241 274.2C246.793 274.2 247.285 274.08 247.717 273.84C248.149 273.6 248.485 273.252 248.725 272.796C248.977 272.34 249.103 271.806 249.103 271.194C249.103 270.57 248.977 270.036 248.725 269.592C248.485 269.136 248.149 268.788 247.717 268.548C247.285 268.308 246.799 268.188 246.259 268.188C245.707 268.188 245.215 268.308 244.783 268.548C244.363 268.788 244.027 269.136 243.775 269.592C243.523 270.036 243.397 270.57 243.397 271.194C243.397 271.806 243.523 272.34 243.775 272.796C244.027 273.252 244.363 273.6 244.783 273.84C245.215 274.08 245.701 274.2 246.241 274.2ZM258.851 276.126C258.071 276.126 257.357 275.946 256.709 275.586C256.073 275.226 255.563 274.686 255.179 273.966C254.807 273.234 254.621 272.31 254.621 271.194C254.621 270.066 254.801 269.142 255.161 268.422C255.533 267.702 256.037 267.168 256.673 266.82C257.309 266.46 258.035 266.28 258.851 266.28C259.799 266.28 260.633 266.484 261.353 266.892C262.085 267.3 262.661 267.87 263.081 268.602C263.513 269.334 263.729 270.198 263.729 271.194C263.729 272.19 263.513 273.06 263.081 273.804C262.661 274.536 262.085 275.106 261.353 275.514C260.633 275.922 259.799 276.126 258.851 276.126ZM253.523 279.492V266.388H255.665V268.656L255.593 271.212L255.773 273.768V279.492H253.523ZM258.599 274.2C259.139 274.2 259.619 274.08 260.039 273.84C260.471 273.6 260.813 273.252 261.065 272.796C261.317 272.34 261.443 271.806 261.443 271.194C261.443 270.57 261.317 270.036 261.065 269.592C260.813 269.136 260.471 268.788 260.039 268.548C259.619 268.308 259.139 268.188 258.599 268.188C258.059 268.188 257.573 268.308 257.141 268.548C256.709 268.788 256.367 269.136 256.115 269.592C255.863 270.036 255.737 270.57 255.737 271.194C255.737 271.806 255.863 272.34 256.115 272.796C256.367 273.252 256.709 273.6 257.141 273.84C257.573 274.08 258.059 274.2 258.599 274.2ZM273.195 269.196H279.477V271.176H273.195V269.196ZM273.393 276H271.053V263.4H280.251V265.362H273.393V276ZM282.298 276V266.388H284.548V276H282.298ZM283.432 264.804C283.012 264.804 282.664 264.672 282.388 264.408C282.124 264.144 281.992 263.826 281.992 263.454C281.992 263.07 282.124 262.752 282.388 262.5C282.664 262.236 283.012 262.104 283.432 262.104C283.852 262.104 284.194 262.23 284.458 262.482C284.734 262.722 284.872 263.028 284.872 263.4C284.872 263.796 284.74 264.132 284.476 264.408C284.212 264.672 283.864 264.804 283.432 264.804ZM287.501 276V262.644H289.751V276H287.501ZM297.223 276.126C296.155 276.126 295.219 275.916 294.415 275.496C293.623 275.064 293.005 274.476 292.561 273.732C292.129 272.988 291.913 272.142 291.913 271.194C291.913 270.234 292.123 269.388 292.543 268.656C292.975 267.912 293.563 267.33 294.307 266.91C295.063 266.49 295.921 266.28 296.881 266.28C297.817 266.28 298.651 266.484 299.383 266.892C300.115 267.3 300.691 267.876 301.111 268.62C301.531 269.364 301.741 270.24 301.741 271.248C301.741 271.344 301.735 271.452 301.723 271.572C301.723 271.692 301.717 271.806 301.705 271.914H293.695V270.42H300.517L299.635 270.888C299.647 270.336 299.533 269.85 299.293 269.43C299.053 269.01 298.723 268.68 298.303 268.44C297.895 268.2 297.421 268.08 296.881 268.08C296.329 268.08 295.843 268.2 295.423 268.44C295.015 268.68 294.691 269.016 294.451 269.448C294.223 269.868 294.109 270.366 294.109 270.942V271.302C294.109 271.878 294.241 272.388 294.505 272.832C294.769 273.276 295.141 273.618 295.621 273.858C296.101 274.098 296.653 274.218 297.277 274.218C297.817 274.218 298.303 274.134 298.735 273.966C299.167 273.798 299.551 273.534 299.887 273.174L301.093 274.56C300.661 275.064 300.115 275.454 299.455 275.73C298.807 275.994 298.063 276.126 297.223 276.126ZM306.872 276.126C306.068 276.126 305.294 276.024 304.55 275.82C303.818 275.604 303.236 275.346 302.804 275.046L303.668 273.336C304.1 273.612 304.616 273.84 305.216 274.02C305.816 274.2 306.416 274.29 307.016 274.29C307.724 274.29 308.234 274.194 308.546 274.002C308.87 273.81 309.032 273.552 309.032 273.228C309.032 272.964 308.924 272.766 308.708 272.634C308.492 272.49 308.21 272.382 307.862 272.31C307.514 272.238 307.124 272.172 306.692 272.112C306.272 272.052 305.846 271.974 305.414 271.878C304.994 271.77 304.61 271.62 304.262 271.428C303.914 271.224 303.632 270.954 303.416 270.618C303.2 270.282 303.092 269.838 303.092 269.286C303.092 268.674 303.266 268.146 303.614 267.702C303.962 267.246 304.448 266.898 305.072 266.658C305.708 266.406 306.458 266.28 307.322 266.28C307.97 266.28 308.624 266.352 309.284 266.496C309.944 266.64 310.49 266.844 310.922 267.108L310.058 268.818C309.602 268.542 309.14 268.356 308.672 268.26C308.216 268.152 307.76 268.098 307.304 268.098C306.62 268.098 306.11 268.2 305.774 268.404C305.45 268.608 305.288 268.866 305.288 269.178C305.288 269.466 305.396 269.682 305.612 269.826C305.828 269.97 306.11 270.084 306.458 270.168C306.806 270.252 307.19 270.324 307.61 270.384C308.042 270.432 308.468 270.51 308.888 270.618C309.308 270.726 309.692 270.876 310.04 271.068C310.4 271.248 310.688 271.506 310.904 271.842C311.12 272.178 311.228 272.616 311.228 273.156C311.228 273.756 311.048 274.278 310.688 274.722C310.34 275.166 309.842 275.514 309.194 275.766C308.546 276.006 307.772 276.126 306.872 276.126Z" fill="#423EC7"/>
<rect x="80" y="319" width="288" height="10" fill="#EEEEEE"/>
<circle cx="223.5" cy="324" r="12" fill="#D9D9D9"/>
<path d="M220.87 328V327.32L223.72 324.57C223.973 324.33 224.16 324.12 224.28 323.94C224.407 323.753 224.49 323.583 224.53 323.43C224.577 323.27 224.6 323.117 224.6 322.97C224.6 322.61 224.473 322.327 224.22 322.12C223.967 321.913 223.597 321.81 223.11 321.81C222.737 321.81 222.4 321.873 222.1 322C221.8 322.12 221.54 322.31 221.32 322.57L220.64 321.98C220.907 321.64 221.263 321.38 221.71 321.2C222.163 321.013 222.66 320.92 223.2 320.92C223.687 320.92 224.11 321 224.47 321.16C224.83 321.313 225.107 321.537 225.3 321.83C225.5 322.123 225.6 322.47 225.6 322.87C225.6 323.097 225.57 323.32 225.51 323.54C225.45 323.76 225.337 323.993 225.17 324.24C225.003 324.487 224.763 324.763 224.45 325.07L221.91 327.52L221.67 327.13H225.9V328H220.87Z" fill="black"/>
<circle cx="365" cy="324" r="12" fill="#D9D9D9"/>
<path d="M364.62 328.08C364.127 328.08 363.647 328.003 363.18 327.85C362.72 327.697 362.343 327.49 362.05 327.23L362.51 326.44C362.743 326.66 363.047 326.84 363.42 326.98C363.793 327.12 364.193 327.19 364.62 327.19C365.14 327.19 365.543 327.08 365.83 326.86C366.123 326.633 366.27 326.33 366.27 325.95C366.27 325.583 366.13 325.29 365.85 325.07C365.577 324.843 365.14 324.73 364.54 324.73H363.98V324.03L366.06 321.47L366.2 321.87H362.37V321H366.99V321.68L364.92 324.23L364.4 323.92H364.73C365.577 323.92 366.21 324.11 366.63 324.49C367.057 324.87 367.27 325.353 367.27 325.94C367.27 326.333 367.173 326.693 366.98 327.02C366.787 327.347 366.493 327.607 366.1 327.8C365.713 327.987 365.22 328.08 364.62 328.08Z" fill="black"/>
<circle cx="82" cy="324" r="12" fill="#423EC7"/>
<path d="M81.66 328V321.4L82.09 321.87H80.08V321H82.65V328H81.66Z" fill="white"/>
<path d="M66.95 350.1C65.99 350.1 65.2367 349.83 64.69 349.29C64.15 348.75 63.88 347.97 63.88 346.95V343H65.18V346.9C65.18 347.62 65.3333 348.143 65.64 348.47C65.9533 348.797 66.3933 348.96 66.96 348.96C67.5267 348.96 67.9633 348.797 68.27 348.47C68.5767 348.143 68.73 347.62 68.73 346.9V343H70.01V346.95C70.01 347.97 69.7367 348.75 69.19 349.29C68.65 349.83 67.9033 350.1 66.95 350.1ZM74.6706 350.07C74.2373 350.07 73.8406 349.97 73.4806 349.77C73.1273 349.57 72.844 349.27 72.6306 348.87C72.424 348.463 72.3206 347.95 72.3206 347.33C72.3206 346.703 72.4206 346.19 72.6206 345.79C72.8273 345.39 73.1073 345.093 73.4606 344.9C73.814 344.7 74.2173 344.6 74.6706 344.6C75.1973 344.6 75.6606 344.713 76.0606 344.94C76.4673 345.167 76.7873 345.483 77.0206 345.89C77.2606 346.297 77.3806 346.777 77.3806 347.33C77.3806 347.883 77.2606 348.367 77.0206 348.78C76.7873 349.187 76.4673 349.503 76.0606 349.73C75.6606 349.957 75.1973 350.07 74.6706 350.07ZM71.7106 351.94V344.66H72.9006V345.92L72.8606 347.34L72.9606 348.76V351.94H71.7106ZM74.5306 349C74.8306 349 75.0973 348.933 75.3306 348.8C75.5706 348.667 75.7606 348.473 75.9006 348.22C76.0406 347.967 76.1106 347.67 76.1106 347.33C76.1106 346.983 76.0406 346.687 75.9006 346.44C75.7606 346.187 75.5706 345.993 75.3306 345.86C75.0973 345.727 74.8306 345.66 74.5306 345.66C74.2306 345.66 73.9606 345.727 73.7206 345.86C73.4806 345.993 73.2906 346.187 73.1506 346.44C73.0106 346.687 72.9406 346.983 72.9406 347.33C72.9406 347.67 73.0106 347.967 73.1506 348.22C73.2906 348.473 73.4806 348.667 73.7206 348.8C73.9606 348.933 74.2306 349 74.5306 349ZM78.5661 350V342.58H79.8161V350H78.5661ZM83.8567 350.07C83.3101 350.07 82.8234 349.953 82.3967 349.72C81.9701 349.48 81.6334 349.153 81.3867 348.74C81.1401 348.327 81.0167 347.857 81.0167 347.33C81.0167 346.797 81.1401 346.327 81.3867 345.92C81.6334 345.507 81.9701 345.183 82.3967 344.95C82.8234 344.717 83.3101 344.6 83.8567 344.6C84.4101 344.6 84.9001 344.717 85.3267 344.95C85.7601 345.183 86.0967 345.503 86.3367 345.91C86.5834 346.317 86.7067 346.79 86.7067 347.33C86.7067 347.857 86.5834 348.327 86.3367 348.74C86.0967 349.153 85.7601 349.48 85.3267 349.72C84.9001 349.953 84.4101 350.07 83.8567 350.07ZM83.8567 349C84.1634 349 84.4367 348.933 84.6767 348.8C84.9167 348.667 85.1034 348.473 85.2367 348.22C85.3767 347.967 85.4467 347.67 85.4467 347.33C85.4467 346.983 85.3767 346.687 85.2367 346.44C85.1034 346.187 84.9167 345.993 84.6767 345.86C84.4367 345.727 84.1667 345.66 83.8667 345.66C83.5601 345.66 83.2867 345.727 83.0467 345.86C82.8134 345.993 82.6267 346.187 82.4867 346.44C82.3467 346.687 82.2767 346.983 82.2767 347.33C82.2767 347.67 82.3467 347.967 82.4867 348.22C82.6267 348.473 82.8134 348.667 83.0467 348.8C83.2867 348.933 83.5567 349 83.8567 349ZM91.1237 350V348.92L91.0537 348.69V346.8C91.0537 346.433 90.9437 346.15 90.7237 345.95C90.5037 345.743 90.1703 345.64 89.7237 345.64C89.4237 345.64 89.127 345.687 88.8337 345.78C88.547 345.873 88.3037 346.003 88.1037 346.17L87.6137 345.26C87.9003 345.04 88.2403 344.877 88.6337 344.77C89.0337 344.657 89.447 344.6 89.8737 344.6C90.647 344.6 91.2437 344.787 91.6637 345.16C92.0903 345.527 92.3037 346.097 92.3037 346.87V350H91.1237ZM89.4437 350.07C89.0437 350.07 88.6937 350.003 88.3937 349.87C88.0937 349.73 87.8603 349.54 87.6937 349.3C87.5337 349.053 87.4537 348.777 87.4537 348.47C87.4537 348.17 87.5237 347.9 87.6637 347.66C87.8103 347.42 88.047 347.23 88.3737 347.09C88.7003 346.95 89.1337 346.88 89.6737 346.88H91.2237V347.71H89.7637C89.337 347.71 89.0503 347.78 88.9037 347.92C88.757 348.053 88.6837 348.22 88.6837 348.42C88.6837 348.647 88.7737 348.827 88.9537 348.96C89.1337 349.093 89.3837 349.16 89.7037 349.16C90.0103 349.16 90.2837 349.09 90.5237 348.95C90.7703 348.81 90.947 348.603 91.0537 348.33L91.2637 349.08C91.1437 349.393 90.927 349.637 90.6137 349.81C90.307 349.983 89.917 350.07 89.4437 350.07ZM96.1777 350.07C95.6643 350.07 95.201 349.957 94.7877 349.73C94.381 349.497 94.061 349.177 93.8277 348.77C93.5943 348.363 93.4777 347.883 93.4777 347.33C93.4777 346.777 93.5943 346.297 93.8277 345.89C94.061 345.483 94.381 345.167 94.7877 344.94C95.201 344.713 95.6643 344.6 96.1777 344.6C96.6243 344.6 97.0243 344.7 97.3777 344.9C97.731 345.093 98.011 345.39 98.2177 345.79C98.4243 346.19 98.5277 346.703 98.5277 347.33C98.5277 347.95 98.4277 348.463 98.2277 348.87C98.0277 349.27 97.751 349.57 97.3977 349.77C97.0443 349.97 96.6377 350.07 96.1777 350.07ZM96.3277 349C96.6277 349 96.8943 348.933 97.1277 348.8C97.3677 348.667 97.5577 348.473 97.6977 348.22C97.8443 347.967 97.9177 347.67 97.9177 347.33C97.9177 346.983 97.8443 346.687 97.6977 346.44C97.5577 346.187 97.3677 345.993 97.1277 345.86C96.8943 345.727 96.6277 345.66 96.3277 345.66C96.0277 345.66 95.7577 345.727 95.5177 345.86C95.2843 345.993 95.0943 346.187 94.9477 346.44C94.8077 346.687 94.7377 346.983 94.7377 347.33C94.7377 347.67 94.8077 347.967 94.9477 348.22C95.0943 348.473 95.2843 348.667 95.5177 348.8C95.7577 348.933 96.0277 349 96.3277 349ZM97.9477 350V348.74L97.9977 347.32L97.8977 345.9V342.58H99.1377V350H97.9477Z" fill="black"/>
<path d="M195.14 345.91H198.62V346.98H195.14V345.91ZM195.24 348.91H199.19V350H193.94V343H199.05V344.09H195.24V348.91ZM199.701 350L202.051 346.94L202.031 347.61L199.791 344.66H201.181L202.751 346.76H202.221L203.801 344.66H205.151L202.891 347.61L202.901 346.94L205.241 350H203.831L202.181 347.77L202.701 347.84L201.081 350H199.701ZM209.124 350.07C208.69 350.07 208.294 349.97 207.934 349.77C207.58 349.57 207.297 349.27 207.084 348.87C206.877 348.463 206.774 347.95 206.774 347.33C206.774 346.703 206.874 346.19 207.074 345.79C207.28 345.39 207.56 345.093 207.914 344.9C208.267 344.7 208.67 344.6 209.124 344.6C209.65 344.6 210.114 344.713 210.514 344.94C210.92 345.167 211.24 345.483 211.474 345.89C211.714 346.297 211.834 346.777 211.834 347.33C211.834 347.883 211.714 348.367 211.474 348.78C211.24 349.187 210.92 349.503 210.514 349.73C210.114 349.957 209.65 350.07 209.124 350.07ZM206.164 351.94V344.66H207.354V345.92L207.314 347.34L207.414 348.76V351.94H206.164ZM208.984 349C209.284 349 209.55 348.933 209.784 348.8C210.024 348.667 210.214 348.473 210.354 348.22C210.494 347.967 210.564 347.67 210.564 347.33C210.564 346.983 210.494 346.687 210.354 346.44C210.214 346.187 210.024 345.993 209.784 345.86C209.55 345.727 209.284 345.66 208.984 345.66C208.684 345.66 208.414 345.727 208.174 345.86C207.934 345.993 207.744 346.187 207.604 346.44C207.464 346.687 207.394 346.983 207.394 347.33C207.394 347.67 207.464 347.967 207.604 348.22C207.744 348.473 207.934 348.667 208.174 348.8C208.414 348.933 208.684 349 208.984 349ZM215.529 350.07C214.936 350.07 214.416 349.953 213.969 349.72C213.529 349.48 213.186 349.153 212.939 348.74C212.699 348.327 212.579 347.857 212.579 347.33C212.579 346.797 212.696 346.327 212.929 345.92C213.169 345.507 213.496 345.183 213.909 344.95C214.329 344.717 214.806 344.6 215.339 344.6C215.859 344.6 216.323 344.713 216.729 344.94C217.136 345.167 217.456 345.487 217.689 345.9C217.923 346.313 218.039 346.8 218.039 347.36C218.039 347.413 218.036 347.473 218.029 347.54C218.029 347.607 218.026 347.67 218.019 347.73H213.569V346.9H217.359L216.869 347.16C216.876 346.853 216.813 346.583 216.679 346.35C216.546 346.117 216.363 345.933 216.129 345.8C215.903 345.667 215.639 345.6 215.339 345.6C215.033 345.6 214.763 345.667 214.529 345.8C214.303 345.933 214.123 346.12 213.989 346.36C213.863 346.593 213.799 346.87 213.799 347.19V347.39C213.799 347.71 213.873 347.993 214.019 348.24C214.166 348.487 214.373 348.677 214.639 348.81C214.906 348.943 215.213 349.01 215.559 349.01C215.859 349.01 216.129 348.963 216.369 348.87C216.609 348.777 216.823 348.63 217.009 348.43L217.679 349.2C217.439 349.48 217.136 349.697 216.769 349.85C216.409 349.997 215.996 350.07 215.529 350.07ZM219.24 350V344.66H220.43V346.13L220.29 345.7C220.45 345.34 220.7 345.067 221.04 344.88C221.387 344.693 221.817 344.6 222.33 344.6V345.79C222.277 345.777 222.227 345.77 222.18 345.77C222.133 345.763 222.087 345.76 222.04 345.76C221.567 345.76 221.19 345.9 220.91 346.18C220.63 346.453 220.49 346.863 220.49 347.41V350H219.24ZM223.39 350V344.66H224.64V350H223.39ZM224.02 343.78C223.787 343.78 223.594 343.707 223.44 343.56C223.294 343.413 223.22 343.237 223.22 343.03C223.22 342.817 223.294 342.64 223.44 342.5C223.594 342.353 223.787 342.28 224.02 342.28C224.254 342.28 224.444 342.35 224.59 342.49C224.744 342.623 224.82 342.793 224.82 343C224.82 343.22 224.747 343.407 224.6 343.56C224.454 343.707 224.26 343.78 224.02 343.78ZM233.021 344.6C233.448 344.6 233.824 344.683 234.151 344.85C234.484 345.017 234.744 345.273 234.931 345.62C235.118 345.96 235.211 346.4 235.211 346.94V350H233.961V347.1C233.961 346.627 233.858 346.273 233.651 346.04C233.444 345.807 233.148 345.69 232.761 345.69C232.488 345.69 232.244 345.75 232.031 345.87C231.824 345.99 231.661 346.167 231.541 346.4C231.428 346.633 231.371 346.93 231.371 347.29V350H230.121V347.1C230.121 346.627 230.018 346.273 229.811 346.04C229.604 345.807 229.308 345.69 228.921 345.69C228.648 345.69 228.404 345.75 228.191 345.87C227.984 345.99 227.821 346.167 227.701 346.4C227.588 346.633 227.531 346.93 227.531 347.29V350H226.281V344.66H227.471V346.08L227.261 345.66C227.441 345.313 227.701 345.05 228.041 344.87C228.388 344.69 228.781 344.6 229.221 344.6C229.721 344.6 230.154 344.723 230.521 344.97C230.894 345.217 231.141 345.59 231.261 346.09L230.771 345.92C230.944 345.52 231.231 345.2 231.631 344.96C232.031 344.72 232.494 344.6 233.021 344.6ZM239.328 350.07C238.735 350.07 238.215 349.953 237.768 349.72C237.328 349.48 236.985 349.153 236.738 348.74C236.498 348.327 236.378 347.857 236.378 347.33C236.378 346.797 236.495 346.327 236.728 345.92C236.968 345.507 237.295 345.183 237.708 344.95C238.128 344.717 238.605 344.6 239.138 344.6C239.658 344.6 240.121 344.713 240.528 344.94C240.935 345.167 241.255 345.487 241.488 345.9C241.721 346.313 241.838 346.8 241.838 347.36C241.838 347.413 241.835 347.473 241.828 347.54C241.828 347.607 241.825 347.67 241.818 347.73H237.368V346.9H241.158L240.668 347.16C240.675 346.853 240.611 346.583 240.478 346.35C240.345 346.117 240.161 345.933 239.928 345.8C239.701 345.667 239.438 345.6 239.138 345.6C238.831 345.6 238.561 345.667 238.328 345.8C238.101 345.933 237.921 346.12 237.788 346.36C237.661 346.593 237.598 346.87 237.598 347.19V347.39C237.598 347.71 237.671 347.993 237.818 348.24C237.965 348.487 238.171 348.677 238.438 348.81C238.705 348.943 239.011 349.01 239.358 349.01C239.658 349.01 239.928 348.963 240.168 348.87C240.408 348.777 240.621 348.63 240.808 348.43L241.478 349.2C241.238 349.48 240.935 349.697 240.568 349.85C240.208 349.997 239.795 350.07 239.328 350.07ZM246.069 344.6C246.495 344.6 246.875 344.683 247.209 344.85C247.549 345.017 247.815 345.273 248.009 345.62C248.202 345.96 248.299 346.4 248.299 346.94V350H247.049V347.1C247.049 346.627 246.935 346.273 246.709 346.04C246.489 345.807 246.179 345.69 245.779 345.69C245.485 345.69 245.225 345.75 244.999 345.87C244.772 345.99 244.595 346.17 244.469 346.41C244.349 346.643 244.289 346.94 244.289 347.3V350H243.039V344.66H244.229V346.1L244.019 345.66C244.205 345.32 244.475 345.06 244.829 344.88C245.189 344.693 245.602 344.6 246.069 344.6ZM251.894 350.07C251.308 350.07 250.854 349.92 250.534 349.62C250.214 349.313 250.054 348.863 250.054 348.27V343.48H251.304V348.24C251.304 348.493 251.368 348.69 251.494 348.83C251.628 348.97 251.811 349.04 252.044 349.04C252.324 349.04 252.558 348.967 252.744 348.82L253.094 349.71C252.948 349.83 252.768 349.92 252.554 349.98C252.341 350.04 252.121 350.07 251.894 350.07ZM249.174 345.7V344.7H252.734V345.7H249.174Z" fill="black"/>
<path d="M347.01 350L343.95 343H345.36L348.09 349.33H347.28L350.04 343H351.34L348.29 350H347.01ZM354.848 350V348.92L354.778 348.69V346.8C354.778 346.433 354.668 346.15 354.448 345.95C354.228 345.743 353.895 345.64 353.448 345.64C353.148 345.64 352.852 345.687 352.558 345.78C352.272 345.873 352.028 346.003 351.828 346.17L351.338 345.26C351.625 345.04 351.965 344.877 352.358 344.77C352.758 344.657 353.172 344.6 353.598 344.6C354.372 344.6 354.968 344.787 355.388 345.16C355.815 345.527 356.028 346.097 356.028 346.87V350H354.848ZM353.168 350.07C352.768 350.07 352.418 350.003 352.118 349.87C351.818 349.73 351.585 349.54 351.418 349.3C351.258 349.053 351.178 348.777 351.178 348.47C351.178 348.17 351.248 347.9 351.388 347.66C351.535 347.42 351.772 347.23 352.098 347.09C352.425 346.95 352.858 346.88 353.398 346.88H354.948V347.71H353.488C353.062 347.71 352.775 347.78 352.628 347.92C352.482 348.053 352.408 348.22 352.408 348.42C352.408 348.647 352.498 348.827 352.678 348.96C352.858 349.093 353.108 349.16 353.428 349.16C353.735 349.16 354.008 349.09 354.248 348.95C354.495 348.81 354.672 348.603 354.778 348.33L354.988 349.08C354.868 349.393 354.652 349.637 354.338 349.81C354.032 349.983 353.642 350.07 353.168 350.07ZM357.633 350V342.58H358.883V350H357.633ZM360.523 350V344.66H361.773V350H360.523ZM361.153 343.78C360.92 343.78 360.726 343.707 360.573 343.56C360.426 343.413 360.353 343.237 360.353 343.03C360.353 342.817 360.426 342.64 360.573 342.5C360.726 342.353 360.92 342.28 361.153 342.28C361.386 342.28 361.576 342.35 361.723 342.49C361.876 342.623 361.953 342.793 361.953 343C361.953 343.22 361.88 343.407 361.733 343.56C361.586 343.707 361.393 343.78 361.153 343.78ZM365.674 350.07C365.16 350.07 364.697 349.957 364.284 349.73C363.877 349.497 363.557 349.177 363.324 348.77C363.09 348.363 362.974 347.883 362.974 347.33C362.974 346.777 363.09 346.297 363.324 345.89C363.557 345.483 363.877 345.167 364.284 344.94C364.697 344.713 365.16 344.6 365.674 344.6C366.12 344.6 366.52 344.7 366.874 344.9C367.227 345.093 367.507 345.39 367.714 345.79C367.92 346.19 368.024 346.703 368.024 347.33C368.024 347.95 367.924 348.463 367.724 348.87C367.524 349.27 367.247 349.57 366.894 349.77C366.54 349.97 366.134 350.07 365.674 350.07ZM365.824 349C366.124 349 366.39 348.933 366.624 348.8C366.864 348.667 367.054 348.473 367.194 348.22C367.34 347.967 367.414 347.67 367.414 347.33C367.414 346.983 367.34 346.687 367.194 346.44C367.054 346.187 366.864 345.993 366.624 345.86C366.39 345.727 366.124 345.66 365.824 345.66C365.524 345.66 365.254 345.727 365.014 345.86C364.78 345.993 364.59 346.187 364.444 346.44C364.304 346.687 364.234 346.983 364.234 347.33C364.234 347.67 364.304 347.967 364.444 348.22C364.59 348.473 364.78 348.667 365.014 348.8C365.254 348.933 365.524 349 365.824 349ZM367.444 350V348.74L367.494 347.32L367.394 345.9V342.58H368.634V350H367.444ZM373.569 350V348.92L373.499 348.69V346.8C373.499 346.433 373.389 346.15 373.169 345.95C372.949 345.743 372.616 345.64 372.169 345.64C371.869 345.64 371.572 345.687 371.279 345.78C370.992 345.873 370.749 346.003 370.549 346.17L370.059 345.26C370.346 345.04 370.686 344.877 371.079 344.77C371.479 344.657 371.892 344.6 372.319 344.6C373.092 344.6 373.689 344.787 374.109 345.16C374.536 345.527 374.749 346.097 374.749 346.87V350H373.569ZM371.889 350.07C371.489 350.07 371.139 350.003 370.839 349.87C370.539 349.73 370.306 349.54 370.139 349.3C369.979 349.053 369.899 348.777 369.899 348.47C369.899 348.17 369.969 347.9 370.109 347.66C370.256 347.42 370.492 347.23 370.819 347.09C371.146 346.95 371.579 346.88 372.119 346.88H373.669V347.71H372.209C371.782 347.71 371.496 347.78 371.349 347.92C371.202 348.053 371.129 348.22 371.129 348.42C371.129 348.647 371.219 348.827 371.399 348.96C371.579 349.093 371.829 349.16 372.149 349.16C372.456 349.16 372.729 349.09 372.969 348.95C373.216 348.81 373.392 348.603 373.499 348.33L373.709 349.08C373.589 349.393 373.372 349.637 373.059 349.81C372.752 349.983 372.362 350.07 371.889 350.07ZM378.363 350.07C377.777 350.07 377.323 349.92 377.003 349.62C376.683 349.313 376.523 348.863 376.523 348.27V343.48H377.773V348.24C377.773 348.493 377.837 348.69 377.963 348.83C378.097 348.97 378.28 349.04 378.513 349.04C378.793 349.04 379.027 348.967 379.213 348.82L379.563 349.71C379.417 349.83 379.237 349.92 379.023 349.98C378.81 350.04 378.59 350.07 378.363 350.07ZM375.643 345.7V344.7H379.203V345.7H375.643ZM382.926 350.07C382.332 350.07 381.812 349.953 381.366 349.72C380.926 349.48 380.582 349.153 380.336 348.74C380.096 348.327 379.976 347.857 379.976 347.33C379.976 346.797 380.092 346.327 380.326 345.92C380.566 345.507 380.892 345.183 381.306 344.95C381.726 344.717 382.202 344.6 382.736 344.6C383.256 344.6 383.719 344.713 384.126 344.94C384.532 345.167 384.852 345.487 385.086 345.9C385.319 346.313 385.436 346.8 385.436 347.36C385.436 347.413 385.432 347.473 385.426 347.54C385.426 347.607 385.422 347.67 385.416 347.73H380.966V346.9H384.756L384.266 347.16C384.272 346.853 384.209 346.583 384.076 346.35C383.942 346.117 383.759 345.933 383.526 345.8C383.299 345.667 383.036 345.6 382.736 345.6C382.429 345.6 382.159 345.667 381.926 345.8C381.699 345.933 381.519 346.12 381.386 346.36C381.259 346.593 381.196 346.87 381.196 347.19V347.39C381.196 347.71 381.269 347.993 381.416 348.24C381.562 348.487 381.769 348.677 382.036 348.81C382.302 348.943 382.609 349.01 382.956 349.01C383.256 349.01 383.526 348.963 383.766 348.87C384.006 348.777 384.219 348.63 384.406 348.43L385.076 349.2C384.836 349.48 384.532 349.697 384.166 349.85C383.806 349.997 383.392 350.07 382.926 350.07Z" fill="black"/>
</svg>
